<svg version="1.1" xmlns="http://www.w3.org/2000/svg" viewBox="0 0 1313.3333333333333 780.3333333333333">
  <!-- svg-source:excalidraw -->
  <defs>
    <style>
      @font-face {
        font-family: "Virgil";
        src: url("https://excalidraw.com/FG_Virgil.woff2");
      }
      @font-face {
        font-family: "Cascadia";
        src: url("https://excalidraw.com/Cascadia.woff2");
      }
    </style>
  </defs>
  <rect x="0" y="0" width="1313.3333333333333" height="780.3333333333333" fill="#edf2ff"></rect><g transform="translate(415.3333333333333 10) rotate(0 443.99999999999994 60.5)"><path d="M-0.1641482599079609 -0.40065401718020444 C328.1459264025092 -1.2553290154337886, 658.0442571379244 -0.27160215634107626, 887.291492985934 -0.3420759789645672 M-0.011070209369063378 0.029923545941710473 C227.236039705202 -3.3876821135729553, 454.94749936647713 -3.154924533292651, 887.9955499712378 0.39266161881387235 M888.2226370554417 -1.0866967719048262 C887.7097402867581 27.528082471806556, 889.5224444326665 57.882212988100946, 887.910810528323 119.73501268215477 M888.2237456003204 0.42387306597083807 C888.5891748721618 46.51588697405532, 887.1684580798168 94.26854445971549, 888.8614670494571 120.87594434525818 M888.12500250265 121.39580541923642 C647.7206837415695 117.77387058854103, 407.538751912862 118.67104196667671, -0.6962376601994038 120.91190451458097 M887.7084905330091 120.7465188857168 C583.759741943702 118.67920651830732, 278.88366829641154 118.54060560859739, -0.21406332813203335 120.74908773861826 M1.729537246748805 119.49243781156838 C-0.5537112109269948 77.30414553089068, -2.917257522782311 35.77964299935847, 1.5334905963391066 -0.8754241149872541 M-0.7378639420494437 121.5696533313021 C-1.0332594258058816 94.66211288413032, -1.5260377568472177 67.12389521375297, -0.6698427340015769 0.021387009881436825" stroke="#000000" stroke-width="1" fill="none"></path></g><g transform="translate(418.00000000000006 12.333333333333371) rotate(0 51 55.5)"><path d="M-1.913847116753459 0.6858271937817335 C32.38261853884906 -1.3158064624853432, 60.166482342034584 -1.2241735598631203, 103.74202981777489 1.5213338118046522 M0.485107540152967 0.6260707238689065 C31.21250295005739 -1.302395027000457, 64.9296435000375 -0.934643458444625, 102.36042711045593 0.17704881820827723 M100.55170646496117 1.4227701406925917 C100.36944655722938 38.688783693034196, 99.88977978772483 73.58504436146467, 101.23666855879128 112.22800141386688 M101.08491083886474 -0.2688971599563956 C102.05646846157498 38.92289519393816, 102.25241613847203 75.5653873540461, 101.18743282463402 111.5698779085651 M103.58264586515725 110.89855700545013 C64.76466175261885 111.93401383357123, 29.73351426422596 111.96206717686728, -1.142454830929637 111.56285619549453 M102.95443516876549 110.54003147874027 C63.939305417239666 110.83945700386539, 24.93510000500828 112.04853814700618, 0.33137026336044073 110.57398267183453 M-1.4911338966339827 112.4756755810231 C0.3819224227312952 82.51862980378792, -1.73429906479083 52.226377041079104, -0.6728672068566084 0.027057824656367302 M-0.9740990111604333 110.26663227472454 C-0.13163492311723524 89.16465941770002, 0.4182651616167278 64.59083998017013, -0.7999541768804193 -0.5880721947178245" stroke="#000000" stroke-width="1" fill="none"></path></g><g transform="translate(427.83437292272174 36.607797413923294) rotate(0.852385357294036 33 23)"><text x="0" y="33" font-family="Virgil, Segoe UI Emoji" font-size="29.167338359014767px" fill="#000000" text-anchor="start" style="white-space: pre;" direction="ltr">Logo</text></g><g transform="translate(560.0000000000002 24.333333333333314) rotate(0 362.49999999999994 49)"><path d="M0.6450685389339924 0.5034428827464581 C224.35515617309142 -2.260889301728457, 449.67841595690703 -2.497373042535037, 725.2442372448743 0.7760473243892193 M-0.22407233752310277 -0.19580457769334317 C197.9155806900002 1.1902053139172495, 395.3728847032413 0.7340184352360666, 725.3793628331274 0.22331789173185826 M726.1847656089813 1.8207111340016127 C724.3285704852082 24.408112562634052, 724.3687210679985 46.47671325579286, 725.5971485096961 98.95571154169738 M724.7049495270476 -0.3813798865303397 C725.3874398499169 34.42984074167907, 724.6589585869946 70.95476166438311, 725.9814503183588 97.58831749949604 M724.6795330412685 97.5394350759685 C531.2042344984599 97.40618095649407, 337.39000849593424 98.31858179820702, -0.5763260237872601 97.36650576516986 M725.3795873638243 97.86163916029037 C526.0278910211288 95.77245504120366, 326.51325484383847 95.78673553923146, -0.040794146433472636 97.62575750984251 M1.0511735994368792 99.20081841759384 C1.4151161718927323 74.34516632091254, -0.6600477289594711 53.05994688719511, 0.910581799224019 -1.3059696573764086 M0.1646431377157569 97.48890067730099 C1.1749811160378159 71.7373072721064, -0.29415223123505707 44.0620240246877, -0.6460466990247369 0.6797913769260049" stroke="#000000" stroke-width="1" fill="none"></path></g><g transform="translate(409.6666666666667 130) rotate(0 445.5 39.5)"><path d="M-0.42824927493929865 -0.020750594884157182 C270.01581575097515 2.77591028566286, 539.6331115202978 2.983832672785968, 890.3190975315869 -0.6430527694523335 M0.10516850911080838 -0.21089671216905118 C356.1787191218696 2.0601857206560674, 712.4937976734712 2.099495973322541, 890.6911796685308 0.133779651299119 M890.8099656421691 -1.1484868545085192 C892.613705750471 24.41396646173671, 892.6711369118747 49.905128808133306, 891.2195027787238 78.61863177828491 M891.239588051103 -0.8451852044090629 C891.637240665676 19.166565863136203, 891.4505951876658 39.2522467173636, 891.3564399471506 78.71268890891224 M890.4513507254421 78.35086781904101 C694.5571935686282 79.03479077051952, 498.1029175458476 79.92030867766216, -0.4955880515277386 79.66916470453143 M890.9015436645598 79.21423196233809 C574.0332888827659 76.19455592137203, 256.4665962195023 76.65404058199748, -0.03382045067846775 79.25302529968322 M-0.008150903508067131 77.54773676209152 C2.0032542119268326 51.458213966619226, -0.07171895406208928 23.089758599735795, -0.7028579991310835 0.34152394346892834 M0.2555331876501441 79.84250106010586 C0.9510481921862811 48.75998427672312, 1.0596393017005177 18.137444643303752, 0.14286047127097845 0.017808721400797367" stroke="#000000" stroke-width="1" fill="none"></path></g><g transform="translate(433.6666666666668 226.33333333333337) rotate(0 76.5 27.5)"><path d="M-1.5057505387812853 -0.08425751142203808 C45.98770327465609 -0.7281895640585572, 91.99372842293234 1.997544133355841, 152.5209620576352 0.3594841081649065 M-0.359824045561254 0.9334967127069831 C51.74881607452407 0.3265183611679823, 102.85527514144778 0.5981563075352461, 152.23259024415165 0.36367544438689947 M153.12523346953094 1.1448077280074358 C154.51813209415414 20.880894124042243, 151.60162061811425 43.83100220281631, 152.22146320156753 54.25020286627114 M153.19194059167057 -0.835699469782412 C152.89763052235358 12.102736988570541, 153.19654778609984 25.630009163171053, 153.23758764658123 55.59328812267631 M151.5250296574086 56.706592770293355 C96.69177829353139 53.274943065503614, 43.74939416293054 55.768052708962934, -1.8593333382159472 55.120430978015065 M153.159668401815 54.35342401172966 C96.10386099843308 57.114537899820135, 40.70145115517079 55.84187385949306, 0.9887789348140359 54.347962408326566 M0.6947976928204298 53.57943013496697 C-0.6066193445120007 42.569972668308765, -0.8413490517530591 26.218506610952318, -0.8940960187464952 1.0910790879279375 M0.5159240821376443 55.17136886622757 C0.675422288151458 39.64669906022027, 0.5504103374201805 24.12852854467928, -0.3762321313843131 0.8987859478220344" stroke="#000000" stroke-width="1" fill="none"></path></g><g transform="translate(604.6666666666667 231.66666666666674) rotate(0 78.5 23)"><path d="M-0.16226216964423656 -0.5571908969432116 C46.27091748630629 -2.8776478136610244, 92.90041862968357 -3.2746337617468093, 158.1263109166175 0.1542560439556837 M-0.8963702628389001 -0.6889574965462089 C31.466641828697178 0.6760374768730253, 64.70566004663706 1.0566073819156736, 157.92763113882393 -0.3172978302463889 M157.42257508821785 -1.8779166359454393 C156.1277785106562 12.000897157005966, 156.93125573834405 25.145761288702488, 157.2089222986251 46.88827693276107 M156.9365310659632 0.2910851100459695 C158.36274901909755 8.586825536936521, 158.3148755518906 18.923079002462327, 157.47848805692047 45.09699560794979 M157.15330353565514 46.11496960930526 C126.12064666608347 48.13168422634713, 91.81421851050108 48.481055242372676, 0.45726129598915577 46.46001869253814 M157.5950921466574 45.693011299706995 C96.98433421337977 48.141332669714465, 39.18677723072469 47.412365450123325, 0.938348232768476 45.00754396710545 M-0.040572432801127434 47.528096256777644 C-0.8495909804664552 36.83696705941111, 1.6929418807663024 25.52846534922719, -1.3690895717591047 0.677281616255641 M-0.14764624927192926 46.967901394702494 C-0.1145334087871015 29.485388907417654, -0.2472362064383924 13.548577447049318, -0.16291162464767694 0.09296663198620081" stroke="#000000" stroke-width="1" fill="none"></path></g><g transform="translate(790.3333333333335 223.66666666666669) rotate(0 66.5 26.5)"><path d="M-0.613977400586009 -1.3031036872416735 C29.451154912915083 1.0385376783926041, 55.56246222946793 1.0852239104826005, 131.0150879342109 -1.6903277058154345 M0.7640481283888221 -0.6327945431694388 C28.246835346054286 0.6654525552596897, 55.42093630731106 -0.6575641180668026, 133.33864080812782 0.5304491380229592 M134.935802789405 -0.8635526318103075 C132.1831798137445 11.115851756092162, 132.78968896281904 24.16379671711475, 133.1859332639724 52.18458521179855 M132.81119429972023 0.16004179511219263 C132.3712768001016 14.458416087832303, 132.55891129798255 27.312073927000167, 132.84483143594116 52.858244315721095 M132.88562455959618 51.98311626724899 C100.26419287556783 53.54282567578368, 70.67196842115372 53.01409152823501, 0.6282190997153521 53.76416235975921 M133.25028440263122 52.47839941177517 C100.35757401892914 54.26593059086241, 68.74180970303713 53.20910921477713, 0.8380282511934638 53.4617133596912 M-1.0459451954811811 52.17946892790496 C0.04651256504468615 41.361341720912606, 0.9091671914141625 26.025207235477865, 1.1405904609709978 1.442141531035304 M0.39732795860618353 52.41788987908512 C0.4607253281865269 32.58032489465549, 0.2776418237481266 12.779793944954868, 0.2660767128691077 -0.21099309530109167" stroke="#000000" stroke-width="1" fill="none"></path></g><g transform="translate(960.1666666666667 226.50000000000006) rotate(0 66.5 26.5)"><path d="M-1.118732063099742 1.6845821123570204 C34.1352028801106 -0.007599163977429324, 66.3009134123102 -0.8721563706081361, 134.91587755270302 1.32534652762115 M-0.6344143459573388 0.18510629329830408 C37.85074522597716 -1.1370513661298902, 76.75945731103421 -0.541769318142906, 133.44947284366935 0.5036367634311318 M134.61384460516274 1.892935810610652 C135.20677045893856 11.660756113287063, 132.13803623032757 23.65690702814609, 132.5140261966735 54.5585396271199 M132.15229672100395 0.5150195816531777 C133.65124663836323 15.724109639134259, 132.92720472938382 34.102924161031844, 133.83176401164383 53.08060605917126 M133.55444625206292 52.67503332905471 C82.19723279708995 53.48666402000003, 27.47701465766876 53.56597354310565, -0.4998075049370527 54.79192918352783 M132.58418658282608 53.27053959760815 C104.19635596582665 52.3541548176948, 76.25911643616854 52.325129233235494, 0.20624935533851385 52.86263154540211 M-0.6135164778679609 53.946096835657954 C0.8204211473744363 40.86727244863287, -0.8122359633166343 31.813043322227895, 1.0128652174025774 0.016909239813685417 M-0.3489071140065789 52.90469978842884 C-0.5399921287503093 35.79430623101071, -0.8126084853615612 19.83148137629032, -0.4928975412622094 -0.6572142681106925" stroke="#000000" stroke-width="1" fill="none"></path></g><g transform="translate(1163.4999999999998 74.83333333333337) rotate(0 59.83333333333337 22.333333333333314)"><path d="M-1.2688286919146776 0.37021258659660816 C33.24847249472516 -1.5984621825783207, 68.61287870761012 -0.40789808660435223, 120.56561235400545 1.0072735268622637 M0.8069223025813699 0.946467905305326 C25.486407750565576 -0.4655533907966072, 48.486191393435035 0.09947196859555896, 119.4236797650035 0.7792698135599494 M117.97126010867464 1.0300391633063555 C120.80596622616682 12.231441117388496, 119.35788240820798 29.772292000303644, 121.3301946899544 44.82787878500915 M119.9438897926982 -0.16248333547264338 C120.14573589330547 17.253433669482654, 118.95392382508152 34.869789173888634, 119.41676291419822 45.56263125843054 M118.8350398323189 45.20774586188293 C92.88901748995613 43.82055815880183, 67.84417732227598 43.76250698988322, 0.4124987106770277 44.39192975747085 M119.35990842773276 45.139715084495606 C95.20848402992517 45.217542694946715, 69.41379581528409 46.221847610613295, 0.5064326087012887 44.67512128657347 M-0.6978142280131578 44.476066243524315 C-0.7287879968248305 29.348085271008287, -1.2740207100473342 16.515241703887764, -0.9857950825244188 -1.314428536221385 M-0.22733990754932165 44.74198935336119 C0.16908230167503135 33.94313179378705, -0.36090458649521096 21.28776693288235, -0.6225068708881736 0.9708353569731116" stroke="#000000" stroke-width="1" fill="none"></path></g><g transform="translate(437.50000000000017 237.83333333333343) rotate(0 71 16)"><text x="71" y="23" font-family="Virgil, Segoe UI Emoji" font-size="20px" fill="#000000" text-anchor="middle" style="white-space: pre;" direction="ltr">CATEGORIAS</text></g><g transform="translate(410.6666666666667 220) rotate(0 446 275.16666666666663)"><path d="M0.3262379638850689 0.6327546961605549 C265.58512639291587 -0.956992397263646, 531.5533890590073 0.08092223648726954, 892.1642987959087 -0.33282269164919853 M-0.017746513709425926 0.158036732301116 C258.00853617861867 2.9791382456719875, 516.7548204731196 3.243413999170065, 892.374855035916 0.22743869982659817 M892.3348037473858 -0.2883099429309368 C892.5652009285154 205.3191759862937, 893.5237535036268 410.68839363548904, 891.4597046367824 549.7358554569382 M891.7431227628142 0.27888380251824857 C892.0979107658254 216.69297165575747, 892.7190226237166 432.3627353970582, 892.3730476919561 550.518471749251 M891.9610994808376 550.9663728443284 C621.3763624485582 547.9075866363991, 349.1429430127144 548.031846179818, -0.5768910177052021 549.6270176855226 M891.7789466444403 550.2668071107317 C642.4465637266635 551.180923948725, 392.9261013563722 550.8307503919203, -0.16936901174485686 550.721767397349 M-0.33659846857190134 550.3886568990846 C0.741271892104298 426.80706671044845, 0.9322051434852183 301.824171132408, -0.3067430503666401 -0.3937842480838299 M-0.3626552399247885 550.2022469238688 C0.581787836562842 409.8079749189006, -0.10197472571209087 269.93175673168145, 0.33624017871916295 0.24966695271432401" stroke="#000000" stroke-width="1" fill="none"></path></g><g transform="translate(1165.6666666666667 88.92696629213481) rotate(0 60 10.786516853932582)"><text x="0" y="15.573033707865168" font-family="Virgil, Segoe UI Emoji" font-size="13.48314606741573px" fill="#000000" text-anchor="start" style="white-space: pre;" direction="ltr">Sesión / registrar</text></g><g transform="translate(1134.8333333333335 221.83333333333337) rotate(0 70.66666666666663 29.833333333333343)"><path d="M-0.8525034803897142 0.8044981081038713 C51.52705136078096 -1.6100468320151164, 98.21135282975925 1.0072331147889302, 143.06724818361292 1.8037378508597612 M0.9828834990039468 0.7693804195150733 C44.78614229628192 -1.446368592195212, 88.8986519251639 -0.74463401954621, 141.61371783011893 0.4400443425402045 M139.65780194414148 0.42431232519447803 C143.38799767937812 14.82521546479936, 140.87263404574546 29.91066030667475, 141.79536582839975 58.43723602282506 M141.98312524550894 0.10539263393729925 C140.24676801199394 11.887429419625555, 141.38843105668502 25.495209880545744, 141.49743933075408 59.2272681683923 M141.49195291412363 60.392451000089466 C100.16495618509742 59.28930825392407, 61.89209573231632 60.52735770146054, 1.451516030356288 57.79696799504262 M140.57542676323393 58.75862140363705 C100.26745925067607 59.321855354445695, 59.64502430800344 59.23716147555661, -0.32057212200015783 59.329765597047924 M-1.8664690274745226 59.34024144398671 C-0.2870222970005123 44.414793693802025, 1.875611658478156 30.309263622450338, 1.699618874117732 -1.6973274629563093 M-0.6807331880554557 59.99494604176533 C0.18093685798657433 40.46909300154076, 0.3566174655438711 21.93469408576688, -0.7928820392116904 0.7910852124914527" stroke="#000000" stroke-width="1" fill="none"></path></g><g transform="translate(518.6666666666667 147.00000000000006) rotate(0 331.99999999999994 28)"><path d="M-0.021434641629457477 0.5284139044582844 C141.6938280120492 -1.8767840393185613, 284.28296685591346 -1.8717902429699895, 664.0860185854137 0.20313650444149972 M-0.19745826087892057 -0.307710886374116 C133.07089317254724 -1.751624645516276, 266.09379210658375 -1.702590133473277, 663.8725442592055 0.3839361067861319 M664.2772646527737 -0.15794595889747143 C663.2880380654335 20.241731251403696, 664.3324564599991 38.67940475381912, 665.9984714966267 56.217613669112346 M663.7540227631107 0.4327981164678931 C663.7703308066353 17.268906801752753, 664.6481703421101 35.46350452359767, 664.9778428832069 55.45381528045984 M664.0000876419247 55.43056334331634 C524.1275809735059 57.865562323927904, 382.31151885464783 58.41285806119444, 0.4151809446513653 55.59937926605346 M664.1634972874075 56.177560448274036 C527.9866103973241 54.29223488380017, 392.26087745316323 54.229310319915434, 0.09683064855635166 55.71223646365108 M-1.0320010799914598 56.27586773224177 C0.34337828978896134 40.48039977811278, -2.0109879530966284 27.338772842660557, -0.7376168984919786 -1.5053071063011885 M-0.5452008387073874 56.61031475570055 C1.022878289036453 35.446415440551945, -0.3540219368413089 14.597731236182156, -0.501615627668798 0.5120367994531989" stroke="#000000" stroke-width="1" fill="none"></path></g><g transform="translate(722.3333333333333 122.22222222222223) rotate(0 125.83333333333337 44.74074074074073)"><text x="125.83333333333334" y="65.4814814814815" font-family="Virgil, Segoe UI Emoji" font-size="55.92592592592592px" fill="#000000" text-anchor="middle" style="white-space: pre;" direction="ltr">Buscador</text></g><g transform="translate(481.6666666666667 691.3333333333334) rotate(0 390 27.5)"><path d="M0.12539803907275202 0.28874408081173897 C157.27592040933672 -0.3333160123974086, 314.5726090088487 0.018675617203116335, 779.7397703640163 0.05524143055081368 M0.3227966252714396 0.11589847765862943 C171.6470915965736 1.229339416176081, 342.98412498645484 1.4299909783899787, 780.012331539765 0.055755996331572535 M779.5112382154912 -1.020100025460124 C778.6480398675892 21.129894032608718, 779.5475283762905 39.55805772263557, 780.0769522767514 53.56335106678307 M779.6880933204666 -0.04732775781303644 C778.9708152107429 14.43183642020449, 779.9147262565326 31.1401256211102, 779.4236045340076 55.814461081288755 M779.5922160379589 55.66036831215024 C479.47211442403494 53.76063737161458, 180.0635598987341 53.90205008275807, -0.2700977332890034 55.512316406518224 M779.7417561713606 54.91214774809778 C504.6211919263005 53.791529847681524, 228.70606629513205 53.481272138655186, -0.01829311214387417 55.173183703050015 M-1.931736471131444 56.14880201406777 C1.5055992753710599 40.70905562164262, 1.1717084200587125 30.393792337737978, 1.0783707480877638 -1.9656190555542707 M-0.3475289782509208 55.42869084980339 C-1.1107545081060382 34.67312589706853, -0.018934297887608476 13.019427666440606, -0.2718058964237571 -0.3424262711778283" stroke="#000000" stroke-width="1" fill="none"></path></g><g transform="translate(540 695.1379928315413) rotate(0 58.16666666666663 20.01433691756273)"><text x="0" y="29.02867383512543" font-family="Virgil, Segoe UI Emoji" font-size="25.017921146953398px" fill="#000000" text-anchor="start" style="white-space: pre;" direction="ltr">Contacto</text></g><g transform="translate(771.6666666666667 691.0057471264366) rotate(0 92.5 20.413793103448313)"><text x="0" y="29.827586206896576" font-family="Virgil, Segoe UI Emoji" font-size="25.51724137931036px" fill="#000000" text-anchor="start" style="white-space: pre;" direction="ltr">Redes Sociales</text></g><g transform="translate(1085 687.764367816092) rotate(0 49.00000000000006 27.034482758620697)"><text x="0" y="39.06896551724138" font-family="Virgil, Segoe UI Emoji" font-size="33.79310344827585px" fill="#000000" text-anchor="start" style="white-space: pre;" direction="ltr">Ayuda</text></g><g><g transform="translate(413.3333333333333 651.3333333333334) rotate(0 443.584673552836 -2.5432258716225533)"><path d="M-0.9589571882039308 -1.022431791946292 C147.0214274569932 -1.6307790370037158, 739.7692815718965 -3.787020759905378, 888.1283042938759 -4.356763650104403 M0.7384515586495399 1.055187571942806 C148.52135018709632 0.15932577143112792, 739.0487021948563 -4.884129870633284, 887.0726185845335 -6.141639315187931" stroke="#000000" stroke-width="1" fill="none"></path></g></g><g transform="translate(796.666666666667 21.166666666666686) rotate(0 98.33333333333343 39.333333333333385)"><text x="0" y="57.66666666666677" font-family="Virgil, Segoe UI Emoji" font-size="49.16666666666671px" fill="#000000" text-anchor="start" style="white-space: pre;" direction="ltr">IMAGEN</text></g><g transform="translate(632.6666666666667 234.5) rotate(0 55.5 16)"><text x="0" y="23" font-family="Virgil, Segoe UI Emoji" font-size="20px" fill="#000000" text-anchor="start" style="white-space: pre;" direction="ltr">Mis Pedidos</text></g><g transform="translate(816.0000000000002 236.16666666666663) rotate(0 40 16)"><text x="0" y="23" font-family="Virgil, Segoe UI Emoji" font-size="20px" fill="#000000" text-anchor="start" style="white-space: pre;" direction="ltr">Ofertas</text></g><g transform="translate(986.0000000000002 234.5) rotate(0 45 16)"><text x="0" y="23" font-family="Virgil, Segoe UI Emoji" font-size="20px" fill="#000000" text-anchor="start" style="white-space: pre;" direction="ltr">Empresas</text></g><g transform="translate(1162.666666666667 222.83333333333331) rotate(0 44.5 26.128440366972484)"><text x="0" y="19.128440366972495" font-family="Virgil, Segoe UI Emoji" font-size="16.33027522935781px" fill="#000000" text-anchor="start" style="white-space: pre;" direction="ltr">Preguntas </text><text x="0" y="45.25688073394499" font-family="Virgil, Segoe UI Emoji" font-size="16.33027522935781px" fill="#000000" text-anchor="start" style="white-space: pre;" direction="ltr">Frecuentes</text></g><g transform="translate(486.3333333333332 364.50000000000006) rotate(0 114.83333333333326 85.49999999999991)"><path d="M0.05295037482922227 0.9886409813878045 C56.91863257132715 0.5924133977496426, 111.26966846267524 2.082127600238399, 229.65180506285412 0.45912877015290116 M-0.21131514547083455 0.8106593773467191 C86.94161632771807 -0.2548210092933104, 172.87742235234663 0.734456826749833, 229.19494060909707 -0.4171617352513902 M227.67872041898457 -0.1533218566328287 C229.59776360960353 56.70919328304002, 231.26168609829296 111.83550809007127, 227.8689131780216 171.6413496192543 M229.80061663469908 -0.10109310131520033 C229.64272309206103 39.29038582900535, 230.21066848300075 77.80522920787327, 228.86275969228384 171.6064395727588 M229.89908328759458 169.8489936167784 C173.0271408938153 172.50013806725366, 117.38163971256193 172.02701228538268, 0.06315893330505044 171.46111916808925 M229.48915832520854 170.68974388033064 C177.63077572443265 171.2948201431002, 126.6076071279773 171.70823695254882, -0.31392266344585495 170.60320240513641 M-0.05786571465432644 169.7640879210083 C0.7361207541171466 118.03918130351218, -0.012069946890696404 66.42756165806196, 0.2670812252908945 0.27782601676881313 M-0.5535453232005239 170.8137037875129 C-0.7968988152313976 129.15187489567313, -0.9150782259274273 86.27948711253694, 0.17092645447701216 0.7908840598538518" stroke="#000000" stroke-width="1" fill="none"></path></g><g transform="translate(805.3333333333337 365.83333333333337) rotate(0 89.8333333333332 88.00000000000011)"><path d="M1.9322766121476889 0.9243449810892344 C41.26617243249584 1.9406396012287561, 85.3291999514524 1.2098877887707178, 178.4559469080217 1.3465304616838694 M0.24903292674571276 -0.9315930576995015 C38.345890000183076 1.3687490638686959, 78.1889142565428 0.4819167372180764, 179.02358474551363 -0.20741596538573503 M181.0813040590532 1.9615679029375315 C177.03229341762736 48.14050859101123, 179.46440688627436 98.39100727774216, 181.55128948452546 176.62804087437712 M178.7003737908475 0.07659134548157454 C180.48126963062808 53.59581389855601, 181.73547685428187 107.64992090445027, 178.72334092079325 176.72292095702164 M180.029933378721 175.24745758809172 C121.68052379057414 175.91786921905688, 67.81598320572317 173.88938409971408, -0.8331239763647318 176.27253689803206 M179.61447780548258 176.79148179572098 C128.72079393432145 175.37569616811064, 78.03622890623895 173.91254128591802, -0.45248814206570387 175.94489434640877 M-0.9675019327551126 177.7142039779576 C-2.4115626805275685 124.04673911519365, 0.5098734504729501 71.97829807139941, -1.3381422702223063 -1.4655259009450674 M0.6322446288540959 175.08047941606515 C-0.7904872652515775 109.71743906866773, -0.387295132540167 41.33160495143389, -0.6497866390272975 0.14914751332253218" stroke="#000000" stroke-width="1" fill="none"></path></g><g><g transform="translate(415.00000000000006 293.66666666666663) rotate(0 442.89964939015766 -1.489575218261848)"><path d="M0.32383525148034087 0.6514242075383663 C148.2508695686029 0.4582793642249403, 739.0593203336828 -1.4815061295197913, 886.7645887511471 -2.136393373956264 M-0.9652899708319456 -0.05218202884308987 C146.88208274063447 -0.460693500028506, 738.085177973247 -3.3173867259619394, 885.8679523818722 -3.6305746440620283" stroke="#000000" stroke-width="1" fill="none"></path></g></g><g transform="translate(643.3333333333335 295.5) rotate(0 187.83333333333326 30.98281786941581)"><text x="0" y="44.96563573883161" font-family="Virgil, Segoe UI Emoji" font-size="38.72852233676974px" fill="#000000" text-anchor="start" style="white-space: pre;" direction="ltr">Titulo del producto</text></g><g transform="translate(551.6666666666667 418.83333333333326) rotate(0 61.5 32)"><text x="0" y="23" font-family="Virgil, Segoe UI Emoji" font-size="20px" fill="#000000" text-anchor="start" style="white-space: pre;" direction="ltr">Imagenes</text><text x="0" y="55" font-family="Virgil, Segoe UI Emoji" font-size="20px" fill="#000000" text-anchor="start" style="white-space: pre;" direction="ltr">del producto</text></g><g transform="translate(528.3333333333335 555.3333333333331) rotate(0 4.166666666666629 3.3333333333333712)"><path d="M2.051725839972183 -0.11614419853256219 C2.7631852840394404 -0.4482174538899481, 4.188451659599745 -0.09259413606369155, 5.133376903465798 0.1857172090670236 C6.0783021473318515 0.46402855419773875, 7.255115091095613 0.7740270445823919, 7.721277303168503 1.5537238722517286 C8.187439515241394 2.3334206999210654, 8.12516659892178 4.040708828684679, 7.930350175903143 4.863898175083044 C7.735533752884507 5.687087521481409, 7.339480975365162 6.345274509782959, 6.552378765056687 6.492859950641919 C5.765276554748213 6.640445391500879, 3.9532576289281613 5.792152518614767, 3.2077369140522944 5.7494108202368075 C2.4622161991764275 5.706669121858848, 2.7168790589068004 6.703916588197497, 2.0792544758014864 6.23640976037416 C1.4416298926961724 5.768902932550823, -0.41250993474368103 3.816482010577303, -0.61801058457959 2.944369853296785 C-0.823511234415499 2.0722576960162664, 0.04138094380802437 1.4865566252898605, 0.8462505767860327 1.0037368166910499 C1.651120209764041 0.5209170080922392, 3.618498050186345 0.3536620436598988, 4.21120721328846 0.04745100170392025 C4.803916376390575 -0.2587600402520583, 4.427189602504313 -0.7649350728649668, 4.4025055553987205 -0.8335294350448215 M5.377992482286292 -1.1596353279237381 C6.149410612339027 -1.0233238445712214, 6.53014644124584 0.07534229441542817, 6.943955927871076 0.6167140502298873 C7.357765414496312 1.1580858060443466, 7.610233674729363 1.5417449114713127, 7.860849402037705 2.0885952069630167 C8.111465129346048 2.6354455024547208, 8.597887153790825 2.973353133812618, 8.447650291721132 3.897815823180112 C8.297413429651439 4.822278512547607, 7.713178003977403 7.046441057613604, 6.959428229619541 7.635371343167984 C6.205678455261679 8.224301628722364, 5.067920355557021 7.804986421585868, 3.925151645573958 7.431397536506388 C2.7823829355908947 7.0578086514269085, 0.7131781790126651 6.176664941994172, 0.10281596972115992 5.3938380326911055 C-0.5075462395703453 4.611011123388039, -0.06856470614477622 3.7055817101706126, 0.2629783898249265 2.7344360806879893 C0.5945214857946293 1.763290451205366, 1.5607634033702555 -0.06329128797598887, 2.092074545539376 -0.43303574420463464 C2.6233856877084967 -0.8027802004332805, 3.0783951658829585 0.6455205677095636, 3.4508452428396508 0.5159693433161148 C3.823295319796343 0.386418118922666, 4.373117948462532 -1.2469194864586892, 4.3267750072795295 -1.2103430905653276" stroke="#000000" stroke-width="1" fill="none"></path></g><g transform="translate(575 553.6666666666665) rotate(0 3.3333333333333144 4.166666666666686)"><path d="M3.350862322350693 -0.7779326227279864 C3.7199751618992467 -0.8167910496772061, 3.5411026148416305 0.7951183747190629, 4.1329274162115395 1.282634995032783 C4.7247522175814485 1.7701516153465033, 6.660581149690936 1.3810449224470118, 6.901811130570146 2.147167099154335 C7.143041111449357 2.913289275861658, 6.0011381706342615 4.832059135331708, 5.580307301486805 5.879368055276723 C5.159476432339348 6.9266769752217385, 4.854468570984895 8.022846166213563, 4.376825915685406 8.43102061882443 C3.8991832603859167 8.839195071435297, 3.4704002321219454 8.532581186058549, 2.71445136968987 8.328414770941922 C1.958502507257795 8.124248355825296, 0.41451498076240245 7.932933226155156, -0.15886725890704456 7.206022128124676 C-0.7322494985764916 6.479111030094196, -0.9705872715059142 5.080563632012414, -0.7258420683268119 3.9669481827590407 C-0.48109686514770955 2.8533327335056677, 0.4931088407778462 1.3144320248327372, 1.309603960167569 0.5243294326044388 C2.126099079557292 -0.2657731596238597, 3.7636141659192974 -0.6984584245116631, 4.1731286480115255 -0.7736673706107506 C4.582643130103754 -0.8488763167098382, 3.968051156737701 -0.0753551986295069, 3.766690852720938 0.07307575600991356 M5.186038511948863 0.9964174420361847 C6.162867157233421 0.8115936264539843, 6.5191682854530235 0.34119803241955804, 6.801070951520337 0.9142885875065514 C7.082973617587651 1.4873791425935448, 7.071333837027014 3.3086005754892165, 6.8774545083527485 4.434960772558145 C6.683575179678483 5.561320969627073, 6.362112117246041 7.106860944943505, 5.637794979474742 7.672449769920121 C4.913477841703442 8.238038594896738, 3.1120805296246004 7.743299899763165, 2.5315516817249506 7.828493722417841 C1.9510228338253008 7.913687545072517, 2.758389569758851 8.686460073724259, 2.1546218920768423 8.183612705848176 C1.5508542143948334 7.680765337972094, -0.8328294124093716 5.696683084887437, -1.0910543843671028 4.8114095151613485 C-1.349279356324834 3.9261359454352602, 0.2169589185162013 3.75101037805337, 0.6052720603304551 2.8719712874916477 C0.9935852021447089 1.9929321969299254, 0.4919199969453635 0.053680863718464256, 1.2388244665184198 -0.46282502820898586 C1.9857289360914763 -0.979330920136436, 4.602008829291105 -0.45574313400856825, 5.086698877768793 -0.22706406407305302 C5.571388926246481 0.0016150058624622154, 4.357152908796582 0.8664740988959669, 4.146964757384546 0.9092493914041055" stroke="#000000" stroke-width="1" fill="none"></path></g><g transform="translate(608.3333333333335 555.3333333333331) rotate(0 5.833333333333314 3.3333333333333712)"><path d="M6.936866785555765 0.41727369940890346 C7.914439016209589 0.8199241259280101, 9.520280877321321 1.6824619231623754, 10.297161388074244 2.274218933585809 C11.074041898827167 2.8659759440092425, 11.864144954153392 3.298173483178682, 11.598149850073302 3.9678157619495042 C11.332154745993211 4.637458040720326, 9.778443461373968 5.863813673450726, 8.7011907635937 6.292072606210741 C7.623938065813434 6.720331538970757, 6.151816547539797 6.754970335761143, 5.1346336633917 6.537369358509598 C4.117450779243603 6.319768381258053, 3.2737932170396364 5.551033822657091, 2.598093458705119 4.986466742701475 C1.922393700370602 4.421899662745858, 1.3509625397596388 3.7043288558804743, 1.0804351133845964 3.149966878775901 C0.8099076870095541 2.5956049016713276, 0.558941339878855 2.2014471737299823, 0.9749289004548656 1.660294880074034 C1.3909164610308762 1.1191425864180855, 2.3414198786619362 0.2405876706617342, 3.5763604768406605 -0.09694688315979016 C4.811301075019385 -0.43448143698131453, 7.49181173791773 -0.5793775850126248, 8.38457248952721 -0.36491244285511204 C9.277333241136692 -0.15044730069759926, 8.926918412721012 0.9371286293528096, 8.932924986497543 1.1898439697852865 M4.445907662399468 0.8701370203556631 C5.3338257510240785 0.5800854807009466, 6.046891689041667 -0.31866937386753985, 7.268087131115079 -0.040310104609853514 C8.489282573188492 0.23804916464783282, 11.304674636208276 1.9262043762325494, 11.773080314839945 2.540292635901781 C12.241485993471613 3.1543808955710126, 10.495805581507248 3.011413808129243, 10.078521202905087 3.644219453405537 C9.661236824302925 4.277025098681831, 10.196927406897935 6.0072689319325905, 9.269374043226977 6.337126507559544 C8.341820679556019 6.666984083186498, 5.623261593488523 5.805812867219305, 4.51320102087934 5.62336490716726 C3.4031404482701566 5.440916947115215, 3.323768757681421 5.483995314284063, 2.609010607571877 5.242438747247274 C1.8942524574623327 5.000882180210485, 0.455578101984897 4.913541458097995, 0.2246521202220757 4.174025504946524 C-0.006273861540745607 3.4345095517950535, 0.5210549711898128 1.5222407568401422, 1.223454716994949 0.8053430283384495 C1.925854462800085 0.08844529983675675, 3.6220920543028035 -0.17965459095196956, 4.439050595052893 -0.12736086606363317 C5.256009135802983 -0.07506714117529678, 6.04209181965542 1.0823873713455818, 6.125205961495488 1.1191053776684678" stroke="#000000" stroke-width="1" fill="none"></path></g><g transform="translate(665 553.6666666666665) rotate(0 5 3.3333333333333144)"><path d="M2.6894936785961128 0.8270689093551686 C3.356457394407172 0.778325152881817, 4.379791360998965 0.961127245245775, 5.31058877854227 1.0878792066901153 C6.241386196085575 1.2146311681344557, 7.498222130172999 1.212597949357337, 8.274278183855944 1.5875806780212107 C9.050334237538891 1.9625634066850846, 9.96512321277467 2.5993396440428875, 9.966925100639944 3.3377755786733587 C9.96872698850522 4.07621151330383, 9.129121616628545 5.342091489801837, 8.285089511047596 6.018196285804038 C7.441057405466647 6.6943010818062385, 5.778992440259335 7.278959525676066, 4.902732467154246 7.394404354686562 C4.026472494049157 7.509849183697058, 3.7130580204692625 7.302227596205065, 3.0275296724170646 6.710865259867014 C2.3420013243648667 6.119502923528963, 1.1978725963070052 4.609887324607878, 0.7895623788410591 3.846230336658255 C0.3812521613751129 3.0825733487086318, 0.15088668747817408 2.6552135254477873, 0.5776683676213876 2.1289233321692755 C1.0044500477646012 1.6026331388907635, 2.8904401081853277 1.0752616908877708, 3.3502524597003402 0.6884891769871828 C3.810064811215353 0.3017166630865949, 3.2291609006126367 -0.20246039017073847, 3.336542476711463 -0.19171175123425188 M3.0839659220120383 -0.14839008573899637 C3.9410686401521597 -0.3428990217610095, 4.371985719897732 0.9688821010914497, 5.328643319598429 1.2714917181961969 C6.285300919299126 1.574101335300944, 7.922729810046797 1.2789477380014678, 8.823911520216221 1.6672676168894864 C9.725093230385646 2.055587495777505, 10.863578479132837 2.967639311981453, 10.735733580614973 3.6014109915243084 C10.607888682097109 4.2351826710671645, 8.979343709979341 4.723595007690213, 8.05684212910903 5.469897694146621 C7.134340548238721 6.216200380603028, 6.0292439701844485 7.959072007673043, 5.200724095393114 8.079227110262753 C4.3722042206017795 8.199382212852464, 3.9758444769359267 6.900368784035621, 3.085722880361026 6.1908283096848855 C2.195601283786125 5.48128783533415, 0.27659786691787985 4.48606648029617, -0.14000548405629143 3.82198426415834 C-0.5566088350304628 3.15790204802051, 0.02561459859304771 2.9306144818024475, 0.5861027745159983 2.206335012857906 C1.146590950438949 1.4820555439133645, 2.864716129399308 -0.07267879764806823, 3.2229235714814126 -0.5236925495089086 C3.581131013563517 -0.974706301369749, 2.6245664623294624 -0.6843726071523304, 2.735347427008624 -0.4997474983071366" stroke="#000000" stroke-width="1" fill="none"></path></g><g transform="translate(826.666666666667 420.50000000000006) rotate(332.3471849825379 74 31.99999999999997)"><text x="0" y="23" font-family="Virgil, Segoe UI Emoji" font-size="20px" fill="#000000" text-anchor="start" style="white-space: pre;" direction="ltr">Descripción del</text><text x="0" y="55" font-family="Virgil, Segoe UI Emoji" font-size="20px" fill="#000000" text-anchor="start" style="white-space: pre;" direction="ltr">Producto</text></g><g transform="translate(1036.666666666667 361.99999999999994) rotate(0 89.16666666666663 84.99999999999997)"><path d="M1.2175642885267735 1.0457714758813381 C54.12504094870138 2.9002612566885846, 106.97704046654201 1.5674442982611552, 177.52271618818236 -1.3002135790884495 M-0.649437190964818 -0.9826450627297163 C66.63723104850696 -0.8670264889486134, 131.0669637868801 0.06475045187398787, 177.41089941871655 -0.8074924629181623 M176.52854409192992 1.0185282193124294 C180.50342774384958 44.212906206026666, 179.37902462476237 87.18242686241864, 179.37200953935576 171.93914091214532 M177.84827019584668 -0.48270961456000805 C177.45842119747144 53.34779182448982, 178.5844626694296 105.7989311572164, 178.5213775218774 169.08102521486575 M179.1613762614627 168.46018373593682 C121.36383303720498 166.99055660258352, 64.4221896237383 169.69659615050375, -1.6788906417787075 168.26983070001 M178.25081678045285 170.8434759099036 C133.1959753033394 169.13317828845848, 88.67030672356482 169.398981565951, 0.05299120955169201 169.9386762697249 M0.1821008361876011 168.18946361169213 C0.2722044503316281 120.74002626352008, -1.2600737297907474 71.82232338190076, 1.8878786005079746 1.7879251204431057 M-0.030481519177556038 170.62658778019244 C-0.35792608130723225 111.55150440335271, -0.9409719811752437 52.408216146752224, 0.5348949413746595 -0.08628490380942822" stroke="#000000" stroke-width="1" fill="none"></path></g><g transform="translate(1051.6666666666667 428.8333333333333) rotate(0 77 17.99999999999997)"><text x="0" y="26" font-family="Virgil, Segoe UI Emoji" font-size="23.125000000000043px" fill="#000000" text-anchor="start" style="white-space: pre;" direction="ltr">Valor empresa</text></g><g transform="translate(1078.3333333333333 478.83333333333337) rotate(0 47.078125 21.833333333333314)"><text x="0" y="31.666666666666615" font-family="Virgil, Segoe UI Emoji" font-size="27.29166666666664px" fill="#000000" text-anchor="start" style="white-space: pre;" direction="ltr">Precios</text></g><g transform="translate(480.00000000000006 588.6666666666667) rotate(0 396.6666666666667 22.5)"><path d="M0.6413694635033608 -0.4546272292733193 C311.93534238015616 -0.34512846663594265, 622.6738724867504 -1.3912328501045708, 793.8098581408461 0.728983448445797 M-0.061572528630495074 -0.1675295226275921 C234.4197060108185 0.2957202446460723, 468.0580394513905 -0.26994101881980903, 793.0819384885332 0.11944664791226388 M793.437486195316 -0.4371992386877537 C793.5849947175321 14.173266905359924, 794.9351132354078 33.597083726897836, 793.2396728036305 43.91257071122527 M793.2499898256114 0.9255387503653765 C794.1025217674984 14.53950210940093, 793.3461303018345 29.84386654570699, 793.8519702137759 44.120855839923024 M793.0794991110762 44.96825742572546 C489.8624491992096 47.17620925957958, 185.71388225853443 48.00219044740002, -0.6313711389899255 44.88374981731177 M793.1950088573 44.73921738937497 C586.092316451172 46.30609143445889, 379.29643480554216 46.81530047128598, -0.00024304464459419252 45.267991960793736 M0.24621719494462013 46.15021717175841 C-1.5500622616149484 27.571843181736767, -0.9093324766494334 12.039974166080356, 1.2561751045286655 0.828470703214407 M-0.895252825692296 44.250851007178426 C-0.5620227376930416 33.59470669273287, 0.1056771357543766 22.639339432120323, -0.6264671701937914 -0.19677242450416088" stroke="#000000" stroke-width="1" fill="none"></path></g><g><g transform="translate(638.3333333333335 590.3333333333334) rotate(0 0.3745955166717181 20.042859843270833)"><path d="M-0.7790968917310237 0.21393925175070772 C-0.685292402489324 6.705994993696612, 1.0944573433034634 32.828196380784114, 1.5282879250744599 39.51976460441947 M1.0127385107707232 -0.7193465864192694 C0.8519357347188247 5.885406168249126, 0.48626191291851456 34.3165762689182, 0.507593622111367 40.80506627296098" stroke="#000000" stroke-width="1" fill="none"></path></g></g><g><g transform="translate(858.3333333333335 592) rotate(0 0.415805235724406 19.10588223745117)"><path d="M-0.5415530227124691 -0.505959353595972 C-0.7853041432797908 6.050366407881182, -0.8981230281293391 32.436642501999934, -0.763957431167364 39.01084012016654 M1.374992911024019 -1.817191959572956 C1.455251163346693 4.8855725748805945, 1.8367435131501408 33.109456603772315, 1.5469194538425657 40.028956434475255" stroke="#000000" stroke-width="1" fill="none"></path></g></g><g><g transform="translate(1078.3333333333335 588.6666666666667) rotate(0 1.6104899193377946 24.072773433226757)"><path d="M1.0098779417574406 -0.9818734265863895 C1.1061841094659561 6.8575924750003425, 0.6404008657568663 39.61241316886406, 0.8544919150571786 47.84589838807774 M0.08092513184063144 1.1170390791166573 C0.5339374154506171 9.047425660570656, 2.843825784659904 41.0166735374068, 3.1400547068349534 49.127420293039876" stroke="#000000" stroke-width="1" fill="none"></path></g></g><g transform="translate(10 193.83333333333331) rotate(0 161.5 158.99999999999997)"><text x="0" y="77" font-family="Virgil, Segoe UI Emoji" font-size="67.22222222222223px" fill="#000000" text-anchor="start" style="white-space: pre;" direction="ltr">Carga</text><text x="0" y="183" font-family="Virgil, Segoe UI Emoji" font-size="67.22222222222223px" fill="#000000" text-anchor="start" style="white-space: pre;" direction="ltr">   de</text><text x="0" y="289" font-family="Virgil, Segoe UI Emoji" font-size="67.22222222222223px" fill="#000000" text-anchor="start" style="white-space: pre;" direction="ltr">productos</text></g><g transform="translate(491.6666666666667 598.8333333333334) rotate(0 69 16)"><text x="0" y="23" font-family="Virgil, Segoe UI Emoji" font-size="20px" fill="#000000" text-anchor="start" style="white-space: pre;" direction="ltr">Medio de pago</text></g><g transform="translate(1048.3333333333335 378.8333333333333) rotate(0 78 16)"><text x="0" y="23" font-family="Virgil, Segoe UI Emoji" font-size="20px" fill="#000000" text-anchor="start" style="white-space: pre;" direction="ltr">Valor cons. final</text></g><g transform="translate(706.6666666666667 587.1666666666667) rotate(0 39.66666666666663 22.66666666666663)"><text x="0" y="33.33333333333326" font-family="Virgil, Segoe UI Emoji" font-size="28.3333333333333px" fill="#000000" text-anchor="start" style="white-space: pre;" direction="ltr">Envio?</text></g><g transform="translate(903.8333333333335 589.2142857142858) rotate(0 73.66666666666663 19.809523809523796)"><text x="73.66666666666663" y="28.6190476190476" font-family="Virgil, Segoe UI Emoji" font-size="24.761904761904752px" fill="#000000" text-anchor="middle" style="white-space: pre;" direction="ltr">Vista previa</text></g></svg>