<svg version="1.1" xmlns="http://www.w3.org/2000/svg" viewBox="0 0 1522.3333333333335 785.3333333333333">
  <!-- svg-source:excalidraw -->
  <defs>
    <style>
      @font-face {
        font-family: "Virgil";
        src: url("https://excalidraw.com/FG_Virgil.woff2");
      }
      @font-face {
        font-family: "Cascadia";
        src: url("https://excalidraw.com/Cascadia.woff2");
      }
    </style>
  </defs>
  <rect x="0" y="0" width="1522.3333333333335" height="785.3333333333333" fill="#edf2ff"></rect><g transform="translate(618.3333333333334 10) rotate(0 444 60.5)"><path d="M-0.1641482599079609 -0.40065401718020444 C328.1459264025092 -1.2553290154337886, 658.0442571379244 -0.27160215634107626, 887.291492985934 -0.3420759789645672 M-0.011070209369063378 0.029923545941710473 C227.236039705202 -3.3876821135729553, 454.94749936647713 -3.154924533292651, 887.9955499712378 0.39266161881387235 M888.2226370554417 -1.0866967719048262 C887.7097402867581 27.528082471806556, 889.5224444326665 57.882212988100946, 887.910810528323 119.73501268215477 M888.2237456003204 0.42387306597083807 C888.5891748721618 46.51588697405532, 887.1684580798168 94.26854445971549, 888.8614670494571 120.87594434525818 M888.12500250265 121.39580541923642 C647.7206837415695 117.77387058854103, 407.538751912862 118.67104196667671, -0.6962376601994038 120.91190451458097 M887.7084905330091 120.7465188857168 C583.759741943702 118.67920651830732, 278.88366829641154 118.54060560859739, -0.21406332813203335 120.74908773861826 M1.729537246748805 119.49243781156838 C-0.5537112109269948 77.30414553089068, -2.917257522782311 35.77964299935847, 1.5334905963391066 -0.8754241149872541 M-0.7378639420494437 121.5696533313021 C-1.0332594258058816 94.66211288413032, -1.5260377568472177 67.12389521375297, -0.6698427340015769 0.021387009881436825" stroke="#000000" stroke-width="1" fill="none"></path></g><g transform="translate(624.3333333333334 14) rotate(0 51 55.5)"><path d="M-1.913847116753459 0.6858271937817335 C32.38261853884906 -1.3158064624853432, 60.166482342034584 -1.2241735598631203, 103.74202981777489 1.5213338118046522 M0.485107540152967 0.6260707238689065 C31.21250295005739 -1.302395027000457, 64.9296435000375 -0.934643458444625, 102.36042711045593 0.17704881820827723 M100.55170646496117 1.4227701406925917 C100.36944655722938 38.688783693034196, 99.88977978772483 73.58504436146467, 101.23666855879128 112.22800141386688 M101.08491083886474 -0.2688971599563956 C102.05646846157498 38.92289519393816, 102.25241613847203 75.5653873540461, 101.18743282463402 111.5698779085651 M103.58264586515725 110.89855700545013 C64.76466175261885 111.93401383357123, 29.73351426422596 111.96206717686728, -1.142454830929637 111.56285619549453 M102.95443516876549 110.54003147874027 C63.939305417239666 110.83945700386539, 24.93510000500828 112.04853814700618, 0.33137026336044073 110.57398267183453 M-1.4911338966339827 112.4756755810231 C0.3819224227312952 82.51862980378792, -1.73429906479083 52.226377041079104, -0.6728672068566084 0.027057824656367302 M-0.9740990111604333 110.26663227472454 C-0.13163492311723524 89.16465941770002, 0.4182651616167278 64.59083998017013, -0.7999541768804193 -0.5880721947178245" stroke="#000000" stroke-width="1" fill="none"></path></g><g transform="translate(637.5010395893885 41.607797413923294) rotate(326.7934296849105 33 23)"><text x="0" y="33" font-family="Virgil, Segoe UI Emoji" font-size="29.167338359014767px" fill="#000000" text-anchor="start" style="white-space: pre;" direction="ltr">Logo</text></g><g transform="translate(761.3333333333334 21) rotate(0 362.5 49)"><path d="M0.6450685389339924 0.5034428827464581 C224.35515617309142 -2.260889301728457, 449.67841595690703 -2.497373042535037, 725.2442372448743 0.7760473243892193 M-0.22407233752310277 -0.19580457769334317 C197.9155806900002 1.1902053139172495, 395.3728847032413 0.7340184352360666, 725.3793628331274 0.22331789173185826 M726.1847656089813 1.8207111340016127 C724.3285704852082 24.408112562634052, 724.3687210679985 46.47671325579286, 725.5971485096961 98.95571154169738 M724.7049495270476 -0.3813798865303397 C725.3874398499169 34.42984074167907, 724.6589585869946 70.95476166438311, 725.9814503183588 97.58831749949604 M724.6795330412685 97.5394350759685 C531.2042344984599 97.40618095649407, 337.39000849593424 98.31858179820702, -0.5763260237872601 97.36650576516986 M725.3795873638243 97.86163916029037 C526.0278910211288 95.77245504120366, 326.51325484383847 95.78673553923146, -0.040794146433472636 97.62575750984251 M1.0511735994368792 99.20081841759384 C1.4151161718927323 74.34516632091254, -0.6600477289594711 53.05994688719511, 0.910581799224019 -1.3059696573764086 M0.1646431377157569 97.48890067730099 C1.1749811160378159 71.7373072721064, -0.29415223123505707 44.0620240246877, -0.6460466990247369 0.6797913769260049" stroke="#000000" stroke-width="1" fill="none"></path></g><g transform="translate(619.3333333333334 135) rotate(0 445.5 39.5)"><path d="M-0.42824927493929865 -0.020750594884157182 C270.01581575097515 2.77591028566286, 539.6331115202978 2.983832672785968, 890.3190975315869 -0.6430527694523335 M0.10516850911080838 -0.21089671216905118 C356.1787191218696 2.0601857206560674, 712.4937976734712 2.099495973322541, 890.6911796685308 0.133779651299119 M890.8099656421691 -1.1484868545085192 C892.613705750471 24.41396646173671, 892.6711369118747 49.905128808133306, 891.2195027787238 78.61863177828491 M891.239588051103 -0.8451852044090629 C891.637240665676 19.166565863136203, 891.4505951876658 39.2522467173636, 891.3564399471506 78.71268890891224 M890.4513507254421 78.35086781904101 C694.5571935686282 79.03479077051952, 498.1029175458476 79.92030867766216, -0.4955880515277386 79.66916470453143 M890.9015436645598 79.21423196233809 C574.0332888827659 76.19455592137203, 256.4665962195023 76.65404058199748, -0.03382045067846775 79.25302529968322 M-0.008150903508067131 77.54773676209152 C2.0032542119268326 51.458213966619226, -0.07171895406208928 23.089758599735795, -0.7028579991310835 0.34152394346892834 M0.2555331876501441 79.84250106010586 C0.9510481921862811 48.75998427672312, 1.0596393017005177 18.137444643303752, 0.14286047127097845 0.017808721400797367" stroke="#000000" stroke-width="1" fill="none"></path></g><g transform="translate(643.3333333333335 231.33333333333337) rotate(0 76.5 27.5)"><path d="M-1.5057505387812853 -0.08425751142203808 C45.98770327465609 -0.7281895640585572, 91.99372842293234 1.997544133355841, 152.5209620576352 0.3594841081649065 M-0.359824045561254 0.9334967127069831 C51.74881607452407 0.3265183611679823, 102.85527514144778 0.5981563075352461, 152.23259024415165 0.36367544438689947 M153.12523346953094 1.1448077280074358 C154.51813209415414 20.880894124042243, 151.60162061811425 43.83100220281631, 152.22146320156753 54.25020286627114 M153.19194059167057 -0.835699469782412 C152.89763052235358 12.102736988570541, 153.19654778609984 25.630009163171053, 153.23758764658123 55.59328812267631 M151.5250296574086 56.706592770293355 C96.69177829353139 53.274943065503614, 43.74939416293054 55.768052708962934, -1.8593333382159472 55.120430978015065 M153.159668401815 54.35342401172966 C96.10386099843308 57.114537899820135, 40.70145115517079 55.84187385949306, 0.9887789348140359 54.347962408326566 M0.6947976928204298 53.57943013496697 C-0.6066193445120007 42.569972668308765, -0.8413490517530591 26.218506610952318, -0.8940960187464952 1.0910790879279375 M0.5159240821376443 55.17136886622757 C0.675422288151458 39.64669906022027, 0.5504103374201805 24.12852854467928, -0.3762321313843131 0.8987859478220344" stroke="#000000" stroke-width="1" fill="none"></path></g><g transform="translate(814.3333333333334 236.66666666666674) rotate(0 78.5 23)"><path d="M-0.16226216964423656 -0.5571908969432116 C46.27091748630629 -2.8776478136610244, 92.90041862968357 -3.2746337617468093, 158.1263109166175 0.1542560439556837 M-0.8963702628389001 -0.6889574965462089 C31.466641828697178 0.6760374768730253, 64.70566004663706 1.0566073819156736, 157.92763113882393 -0.3172978302463889 M157.42257508821785 -1.8779166359454393 C156.1277785106562 12.000897157005966, 156.93125573834405 25.145761288702488, 157.2089222986251 46.88827693276107 M156.9365310659632 0.2910851100459695 C158.36274901909755 8.586825536936521, 158.3148755518906 18.923079002462327, 157.47848805692047 45.09699560794979 M157.15330353565514 46.11496960930526 C126.12064666608347 48.13168422634713, 91.81421851050108 48.481055242372676, 0.45726129598915577 46.46001869253814 M157.5950921466574 45.693011299706995 C96.98433421337977 48.141332669714465, 39.18677723072469 47.412365450123325, 0.938348232768476 45.00754396710545 M-0.040572432801127434 47.528096256777644 C-0.8495909804664552 36.83696705941111, 1.6929418807663024 25.52846534922719, -1.3690895717591047 0.677281616255641 M-0.14764624927192926 46.967901394702494 C-0.1145334087871015 29.485388907417654, -0.2472362064383924 13.548577447049318, -0.16291162464767694 0.09296663198620081" stroke="#000000" stroke-width="1" fill="none"></path></g><g transform="translate(1000.0000000000001 228.66666666666669) rotate(0 66.5 26.5)"><path d="M-0.613977400586009 -1.3031036872416735 C29.451154912915083 1.0385376783926041, 55.56246222946793 1.0852239104826005, 131.0150879342109 -1.6903277058154345 M0.7640481283888221 -0.6327945431694388 C28.246835346054286 0.6654525552596897, 55.42093630731106 -0.6575641180668026, 133.33864080812782 0.5304491380229592 M134.935802789405 -0.8635526318103075 C132.1831798137445 11.115851756092162, 132.78968896281904 24.16379671711475, 133.1859332639724 52.18458521179855 M132.81119429972023 0.16004179511219263 C132.3712768001016 14.458416087832303, 132.55891129798255 27.312073927000167, 132.84483143594116 52.858244315721095 M132.88562455959618 51.98311626724899 C100.26419287556783 53.54282567578368, 70.67196842115372 53.01409152823501, 0.6282190997153521 53.76416235975921 M133.25028440263122 52.47839941177517 C100.35757401892914 54.26593059086241, 68.74180970303713 53.20910921477713, 0.8380282511934638 53.4617133596912 M-1.0459451954811811 52.17946892790496 C0.04651256504468615 41.361341720912606, 0.9091671914141625 26.025207235477865, 1.1405904609709978 1.442141531035304 M0.39732795860618353 52.41788987908512 C0.4607253281865269 32.58032489465549, 0.2776418237481266 12.779793944954868, 0.2660767128691077 -0.21099309530109167" stroke="#000000" stroke-width="1" fill="none"></path></g><g transform="translate(1169.8333333333335 231.50000000000006) rotate(0 66.5 26.5)"><path d="M-1.118732063099742 1.6845821123570204 C34.1352028801106 -0.007599163977429324, 66.3009134123102 -0.8721563706081361, 134.91587755270302 1.32534652762115 M-0.6344143459573388 0.18510629329830408 C37.85074522597716 -1.1370513661298902, 76.75945731103421 -0.541769318142906, 133.44947284366935 0.5036367634311318 M134.61384460516274 1.892935810610652 C135.20677045893856 11.660756113287063, 132.13803623032757 23.65690702814609, 132.5140261966735 54.5585396271199 M132.15229672100395 0.5150195816531777 C133.65124663836323 15.724109639134259, 132.92720472938382 34.102924161031844, 133.83176401164383 53.08060605917126 M133.55444625206292 52.67503332905471 C82.19723279708995 53.48666402000003, 27.47701465766876 53.56597354310565, -0.4998075049370527 54.79192918352783 M132.58418658282608 53.27053959760815 C104.19635596582665 52.3541548176948, 76.25911643616854 52.325129233235494, 0.20624935533851385 52.86263154540211 M-0.6135164778679609 53.946096835657954 C0.8204211473744363 40.86727244863287, -0.8122359633166343 31.813043322227895, 1.0128652174025774 0.016909239813685417 M-0.3489071140065789 52.90469978842884 C-0.5399921287503093 35.79430623101071, -0.8126084853615612 19.83148137629032, -0.4928975412622094 -0.6572142681106925" stroke="#000000" stroke-width="1" fill="none"></path></g><g transform="translate(1364.8333333333335 81.5) rotate(0 66.5 26.5)"><path d="M-1.2688286919146776 0.37021258659660816 C37.11662902841345 -1.6600239638704808, 76.34919177498669 -0.4694598678965123, 133.8989456873387 1.0072735268622637 M0.8069223025813699 0.946467905305326 C28.22001786278561 -0.5616961595322936, 53.953411617875105 0.003329199859872567, 132.75701309833676 0.7792698135599494 M131.3045934420079 1.0300391633063555 C134.16147261890583 14.842416410986335, 132.713388800947 34.99424258749932, 134.66352802328765 53.16121211834252 M133.27722312603146 -0.16248333547264338 C133.42536695548333 20.532668882701547, 132.23355488725937 41.42825960032642, 132.75009624753147 53.895964591763914 M132.16837316565216 53.5410791952163 C103.41327210878953 52.113291778536514, 75.55935322660952 52.055240609617904, 0.4124987106770277 52.72526309080422 M132.69324176106602 53.47304841782898 C105.75871322294697 53.67185879430733, 77.18092086799442 54.67616370997391, 0.5064326087012887 53.00845461990684 M-0.6978142280131578 52.809399576857686 C-0.7765048800688237 35.08728733500466, -1.3217375932913273 19.660312498547135, -0.9857950825244188 -1.314428536221385 M-0.22733990754932165 53.07532268669456 C0.21902126966975632 40.10141176981851, -0.310965618500486 25.270993551611898, -0.6225068708881736 0.9708353569731116" stroke="#000000" stroke-width="1" fill="none"></path></g><g transform="translate(647.1666666666669 242.83333333333343) rotate(0 71 16)"><text x="71" y="23" font-family="Virgil, Segoe UI Emoji" font-size="20px" fill="#000000" text-anchor="middle" style="white-space: pre;" direction="ltr">CATEGORIAS</text></g><g transform="translate(620.3333333333334 225) rotate(0 446 275.16666666666663)"><path d="M0.3262379638850689 0.6327546961605549 C265.58512639291587 -0.956992397263646, 531.5533890590073 0.08092223648726954, 892.1642987959087 -0.33282269164919853 M-0.017746513709425926 0.158036732301116 C258.00853617861867 2.9791382456719875, 516.7548204731196 3.243413999170065, 892.374855035916 0.22743869982659817 M892.3348037473858 -0.2883099429309368 C892.5652009285154 205.3191759862937, 893.5237535036268 410.68839363548904, 891.4597046367824 549.7358554569382 M891.7431227628142 0.27888380251824857 C892.0979107658254 216.69297165575747, 892.7190226237166 432.3627353970582, 892.3730476919561 550.518471749251 M891.9610994808376 550.9663728443284 C621.3763624485582 547.9075866363991, 349.1429430127144 548.031846179818, -0.5768910177052021 549.6270176855226 M891.7789466444403 550.2668071107317 C642.4465637266635 551.180923948725, 392.9261013563722 550.8307503919203, -0.16936901174485686 550.721767397349 M-0.33659846857190134 550.3886568990846 C0.741271892104298 426.80706671044845, 0.9322051434852183 301.824171132408, -0.3067430503666401 -0.3937842480838299 M-0.3626552399247885 550.2022469238688 C0.581787836562842 409.8079749189006, -0.10197472571209087 269.93175673168145, 0.33624017871916295 0.24966695271432401" stroke="#000000" stroke-width="1" fill="none"></path></g><g transform="translate(1375.3333333333335 93.92696629213481) rotate(0 60 10.786516853932582)"><text x="0" y="15.573033707865168" font-family="Virgil, Segoe UI Emoji" font-size="13.48314606741573px" fill="#000000" text-anchor="start" style="white-space: pre;" direction="ltr">Sesión / registrar</text></g><g transform="translate(1344.5 226.83333333333337) rotate(0 70.66666666666663 29.833333333333343)"><path d="M-0.8525034803897142 0.8044981081038713 C51.52705136078096 -1.6100468320151164, 98.21135282975925 1.0072331147889302, 143.06724818361292 1.8037378508597612 M0.9828834990039468 0.7693804195150733 C44.78614229628192 -1.446368592195212, 88.8986519251639 -0.74463401954621, 141.61371783011893 0.4400443425402045 M139.65780194414148 0.42431232519447803 C143.38799767937812 14.82521546479936, 140.87263404574546 29.91066030667475, 141.79536582839975 58.43723602282506 M141.98312524550894 0.10539263393729925 C140.24676801199394 11.887429419625555, 141.38843105668502 25.495209880545744, 141.49743933075408 59.2272681683923 M141.49195291412363 60.392451000089466 C100.16495618509742 59.28930825392407, 61.89209573231632 60.52735770146054, 1.451516030356288 57.79696799504262 M140.57542676323393 58.75862140363705 C100.26745925067607 59.321855354445695, 59.64502430800344 59.23716147555661, -0.32057212200015783 59.329765597047924 M-1.8664690274745226 59.34024144398671 C-0.2870222970005123 44.414793693802025, 1.875611658478156 30.309263622450338, 1.699618874117732 -1.6973274629563093 M-0.6807331880554557 59.99494604176533 C0.18093685798657433 40.46909300154076, 0.3566174655438711 21.93469408576688, -0.7928820392116904 0.7910852124914527" stroke="#000000" stroke-width="1" fill="none"></path></g><g transform="translate(728.3333333333335 152.00000000000006) rotate(0 331.99999999999994 28)"><path d="M-0.021434641629457477 0.5284139044582844 C141.6938280120492 -1.8767840393185613, 284.28296685591346 -1.8717902429699895, 664.0860185854137 0.20313650444149972 M-0.19745826087892057 -0.307710886374116 C133.07089317254724 -1.751624645516276, 266.09379210658375 -1.702590133473277, 663.8725442592055 0.3839361067861319 M664.2772646527737 -0.15794595889747143 C663.2880380654335 20.241731251403696, 664.3324564599991 38.67940475381912, 665.9984714966267 56.217613669112346 M663.7540227631107 0.4327981164678931 C663.7703308066353 17.268906801752753, 664.6481703421101 35.46350452359767, 664.9778428832069 55.45381528045984 M664.0000876419247 55.43056334331634 C524.1275809735059 57.865562323927904, 382.31151885464783 58.41285806119444, 0.4151809446513653 55.59937926605346 M664.1634972874075 56.177560448274036 C527.9866103973241 54.29223488380017, 392.26087745316323 54.229310319915434, 0.09683064855635166 55.71223646365108 M-1.0320010799914598 56.27586773224177 C0.34337828978896134 40.48039977811278, -2.0109879530966284 27.338772842660557, -0.7376168984919786 -1.5053071063011885 M-0.5452008387073874 56.61031475570055 C1.022878289036453 35.446415440551945, -0.3540219368413089 14.597731236182156, -0.501615627668798 0.5120367994531989" stroke="#000000" stroke-width="1" fill="none"></path></g><g transform="translate(931.9999999999999 127.22222222222223) rotate(0 125.83333333333337 44.74074074074073)"><text x="125.83333333333334" y="65.4814814814815" font-family="Virgil, Segoe UI Emoji" font-size="55.92592592592592px" fill="#000000" text-anchor="middle" style="white-space: pre;" direction="ltr">Buscador</text></g><g transform="translate(1267.333333333333 311) rotate(0 106.33333333333337 25.50000000000003)"><path d="M-1.6335637281726945 1.187586175844883 C43.56519231787899 0.31363192471557766, 87.06107600307939 1.3200642332818855, 213.387514854954 0.19026641484947127 M0.26515731762487843 -0.3256377294894035 C46.01757491130156 -0.9609019523220429, 91.16113460807844 -0.035451100614024345, 212.6210842839151 0.36124699769275814 M213.68722118126854 -0.8130256552249193 C211.2627098401419 13.257892914954589, 213.69854561885512 25.246351081691714, 213.53080029475197 51.594361303374235 M212.03762648409858 -0.39865274634212255 C213.58839228618584 10.379480556864307, 212.47662836182556 21.67999945729974, 213.15158397859588 50.44356413278735 M212.23298683302932 51.31453448946165 C142.50978598229722 52.15877017583246, 73.21789073111421 50.53292696179898, 1.4688600234979277 51.33602306847936 M212.70899386680262 51.702848959942926 C149.65345411380486 52.85483321311114, 87.35170972706649 52.24009610540372, -0.06513997503382003 51.19363874247253 M-0.8032878916710615 51.490181146189634 C1.8255029157269749 39.120390695240395, 0.4566931561101232 24.511279489286274, 0.5443233568221331 -0.9672428388148546 M-0.6963832387700677 51.88468133006251 C0.8618496601190424 40.06498293643823, 0.6070288662519312 28.847076878324188, -0.9393307277932763 -0.4335613092407584" stroke="#000000" stroke-width="1" fill="none"></path></g><g transform="translate(652.6666666666664 322.6666666666667) rotate(0 52.5 16)"><text x="0" y="23" font-family="Virgil, Segoe UI Emoji" font-size="20px" fill="#000000" text-anchor="start" style="white-space: pre;" direction="ltr">Mi Carrito</text></g><g transform="translate(691.3333333333334 696.3333333333334) rotate(0 390 27.5)"><path d="M0.12539803907275202 0.28874408081173897 C157.27592040933672 -0.3333160123974086, 314.5726090088487 0.018675617203116335, 779.7397703640163 0.05524143055081368 M0.3227966252714396 0.11589847765862943 C171.6470915965736 1.229339416176081, 342.98412498645484 1.4299909783899787, 780.012331539765 0.055755996331572535 M779.5112382154912 -1.020100025460124 C778.6480398675892 21.129894032608718, 779.5475283762905 39.55805772263557, 780.0769522767514 53.56335106678307 M779.6880933204666 -0.04732775781303644 C778.9708152107429 14.43183642020449, 779.9147262565326 31.1401256211102, 779.4236045340076 55.814461081288755 M779.5922160379589 55.66036831215024 C479.47211442403494 53.76063737161458, 180.0635598987341 53.90205008275807, -0.2700977332890034 55.512316406518224 M779.7417561713606 54.91214774809778 C504.6211919263005 53.791529847681524, 228.70606629513205 53.481272138655186, -0.01829311214387417 55.173183703050015 M-1.931736471131444 56.14880201406777 C1.5055992753710599 40.70905562164262, 1.1717084200587125 30.393792337737978, 1.0783707480877638 -1.9656190555542707 M-0.3475289782509208 55.42869084980339 C-1.1107545081060382 34.67312589706853, -0.018934297887608476 13.019427666440606, -0.2718058964237571 -0.3424262711778283" stroke="#000000" stroke-width="1" fill="none"></path></g><g transform="translate(749.6666666666667 700.1379928315413) rotate(0 58.16666666666663 20.01433691756273)"><text x="0" y="29.02867383512543" font-family="Virgil, Segoe UI Emoji" font-size="25.017921146953398px" fill="#000000" text-anchor="start" style="white-space: pre;" direction="ltr">Contacto</text></g><g transform="translate(981.3333333333334 696.0057471264366) rotate(0 92.5 20.413793103448313)"><text x="0" y="29.827586206896576" font-family="Virgil, Segoe UI Emoji" font-size="25.51724137931036px" fill="#000000" text-anchor="start" style="white-space: pre;" direction="ltr">Redes Sociales</text></g><g transform="translate(1294.6666666666667 692.764367816092) rotate(0 49.00000000000006 27.034482758620697)"><text x="0" y="39.06896551724138" font-family="Virgil, Segoe UI Emoji" font-size="33.79310344827585px" fill="#000000" text-anchor="start" style="white-space: pre;" direction="ltr">Ayuda</text></g><g><g transform="translate(629.6666666666665 294.6666666666667) rotate(0 440.53308764041725 -0.1800847799827352)"><path d="M0.20506680719554415 1.179850136116147 C147.0550692536351 0.8923866631670194, 735.2063343012913 -1.214720148303411, 882.2125871292006 -1.5400196960816401 M-1.1464118483662604 0.7536675122380259 C145.49598726030857 0.6654867975248296, 734.39687427385 0.6302952287263656, 881.5511499084038 0.06389521469676307" stroke="#000000" stroke-width="1" fill="none"></path></g></g><g><g transform="translate(623 656.3333333333334) rotate(0 443.584673552836 -2.5432258716225533)"><path d="M-0.9589571882039308 -1.022431791946292 C147.0214274569932 -1.6307790370037158, 739.7692815718965 -3.787020759905378, 888.1283042938759 -4.356763650104403 M0.7384515586495399 1.055187571942806 C148.52135018709632 0.15932577143112792, 739.0487021948563 -4.884129870633284, 887.0726185845335 -6.141639315187931" stroke="#000000" stroke-width="1" fill="none"></path></g></g><g transform="translate(1006.3333333333337 26.166666666666686) rotate(0 98.33333333333343 39.333333333333385)"><text x="0" y="57.66666666666677" font-family="Virgil, Segoe UI Emoji" font-size="49.16666666666671px" fill="#000000" text-anchor="start" style="white-space: pre;" direction="ltr">IMAGEN</text></g><g transform="translate(842.3333333333335 239.5) rotate(0 55.5 16)"><text x="0" y="23" font-family="Virgil, Segoe UI Emoji" font-size="20px" fill="#000000" text-anchor="start" style="white-space: pre;" direction="ltr">Mis Pedidos</text></g><g transform="translate(1025.666666666667 241.16666666666663) rotate(0 40 16)"><text x="0" y="23" font-family="Virgil, Segoe UI Emoji" font-size="20px" fill="#000000" text-anchor="start" style="white-space: pre;" direction="ltr">Ofertas</text></g><g transform="translate(1195.666666666667 239.5) rotate(0 45 16)"><text x="0" y="23" font-family="Virgil, Segoe UI Emoji" font-size="20px" fill="#000000" text-anchor="start" style="white-space: pre;" direction="ltr">Empresas</text></g><g transform="translate(1372.3333333333335 227.83333333333331) rotate(0 44.5 26.128440366972484)"><text x="0" y="19.128440366972495" font-family="Virgil, Segoe UI Emoji" font-size="16.33027522935781px" fill="#000000" text-anchor="start" style="white-space: pre;" direction="ltr">Preguntas </text><text x="0" y="45.25688073394499" font-family="Virgil, Segoe UI Emoji" font-size="16.33027522935781px" fill="#000000" text-anchor="start" style="white-space: pre;" direction="ltr">Frecuentes</text></g><g transform="translate(10 136.26923076923083) rotate(0 262.5 256.5)"><text x="0" y="124" font-family="Virgil, Segoe UI Emoji" font-size="109.10256410256413px" fill="#000000" text-anchor="start" style="white-space: pre;" direction="ltr">CARRITO</text><text x="0" y="295" font-family="Virgil, Segoe UI Emoji" font-size="109.10256410256413px" fill="#000000" text-anchor="start" style="white-space: pre;" direction="ltr">DE</text><text x="0" y="466" font-family="Virgil, Segoe UI Emoji" font-size="109.10256410256413px" fill="#000000" text-anchor="start" style="white-space: pre;" direction="ltr">COMPRAS</text></g><g transform="translate(1295.8333333333335 317.00000000000006) rotate(0 76.5 16)"><text x="0" y="23" font-family="Virgil, Segoe UI Emoji" font-size="20px" fill="#000000" text-anchor="start" style="white-space: pre;" direction="ltr">Finalizar Pedido</text></g><g transform="translate(645.9999999999999 379.5) rotate(0 417.33333333333326 25.50000000000003)"><path d="M0.02490242496132851 0.4649553082883358 C202.4320590143402 1.066408649345239, 403.6565839203695 1.7670174035032589, 834.6596772926548 0.21592707857489588 M-0.09938096888363362 0.3812510181218386 C314.8382608238607 0.3647623679091531, 629.2034916516393 0.8300171873023111, 834.4448151162513 -0.19619009010493757 M832.6787204189845 -0.1533218566328287 C833.9448243350689 17.46437694625931, 835.6087468237583 33.34587541650985, 832.8689131780216 51.641349619254534 M834.800616634699 -0.10109310131520033 C834.7541967682508 11.765559633914396, 835.3221421591905 22.755576817691356, 833.8627596922838 51.60643957275904 M834.7759716051319 50.45868466123945 C630.3899464358884 53.29385128859685, 426.5807134114205 53.07134145144627, 0.02970348373055458 51.21686315760023 M834.5831849506744 50.8540873456747 C646.562462397292 51.37697792351749, 458.9345388398815 51.57140678465869, -0.14763702042400836 50.81338711269206 M-0.05786571465432644 49.76408792100853 C1.1234289966616777 34.31868396727373, 0.3752382956538347 18.986566985584815, 0.2670812252908945 0.27782601676881313 M-0.5535453232005239 50.81370378751314 C-0.7320385633129627 38.78980757994582, -0.8502179740089923 25.555352481082114, 0.17092645447701216 0.7908840598538518" stroke="#000000" stroke-width="1" fill="none"></path></g><g transform="translate(721.8333333333334 387) rotate(0 44 16)"><text x="0" y="23" font-family="Virgil, Segoe UI Emoji" font-size="20px" fill="#000000" text-anchor="start" style="white-space: pre;" direction="ltr">Producto</text></g><g transform="translate(948.3333333333334 387) rotate(0 45 16)"><text x="0" y="23" font-family="Virgil, Segoe UI Emoji" font-size="20px" fill="#000000" text-anchor="start" style="white-space: pre;" direction="ltr">Cantidad</text></g><g transform="translate(1063.3333333333335 387) rotate(0 35 16)"><text x="0" y="23" font-family="Virgil, Segoe UI Emoji" font-size="20px" fill="#000000" text-anchor="start" style="white-space: pre;" direction="ltr">Eliminar</text></g><g transform="translate(1163.3333333333335 385) rotate(0 65.5 16)"><text x="0" y="23" font-family="Virgil, Segoe UI Emoji" font-size="20px" fill="#000000" text-anchor="start" style="white-space: pre;" direction="ltr">Valor Unitario</text></g><g transform="translate(1332.8333333333335 385) rotate(0 55.5 16)"><text x="0" y="23" font-family="Virgil, Segoe UI Emoji" font-size="20px" fill="#000000" text-anchor="start" style="white-space: pre;" direction="ltr">Valor Total</text></g><g transform="translate(645.0000000000001 437.5) rotate(0 417.33333333333326 25.500000000000057)"><path d="M0.6213703729212284 0.5692712806165219 C221.67481596916912 -1.9933346107204757, 444.9131835930049 -1.362306697626909, 834.3665845411517 -0.4642807222902775 M0.1253703247755766 -0.24905275814235212 C240.8891797248274 0.14820586318274315, 481.35871536694464 0.7092679488112528, 834.8235813787826 0.03006855733692646 M836.0949295802661 -0.32089763320982456 C836.562030161411 19.567369787860688, 835.168550992996 37.28590416144585, 834.6461204929897 51.21565044485039 M835.4410061069452 0.13912169355899096 C834.3355740524796 18.715532129351075, 833.8873441733388 39.7507257148624, 835.2348967917883 50.03636975307024 M834.8317825096348 51.70685591921217 C534.4656253566343 48.57412706704941, 233.01100155934685 48.95835474820939, -0.11503263935446739 50.259465720504586 M834.9901910355934 51.044812469556994 C660.3941612162937 47.54602121572203, 485.9979738499968 47.43598878841109, 0.3864553224295378 51.18486899621791 M-0.45338216982781887 49.789280241355364 C1.2758012028131633 36.47763143805792, -1.3162901787366719 24.74026814196262, 0.4980658534914255 -1.863186115399003 M0.05865544360131025 50.35691807884729 C-0.6896147282142199 40.259224749635955, -1.3223214597720658 30.307875605300108, 0.707318696193397 0.9807839514687657" stroke="#000000" stroke-width="1" fill="none"></path></g><g transform="translate(645.0000000000001 497.5) rotate(0 417.33333333333326 25.500000000000057)"><path d="M0.7729106448590756 0.3697379924356938 C195.7131969566146 3.2017292866110805, 392.5451359478135 2.9094285616278652, 834.1823787632086 0.5386121846735478 M0.09961317069828511 -0.37263722307980063 C182.08323003016412 1.164722959096233, 364.7653137627989 0.8099900284359852, 834.4094338982054 -0.08296638615429403 M836.0813040590533 1.9615679029375315 C833.0824467888069 12.841322776209582, 835.5145602574539 27.79263564813886, 836.5512894845256 51.62804087437696 M833.7003737908476 0.07659134548157454 C834.2925159211983 15.089269854780309, 835.5467231448521 30.636832816898867, 833.7233409207934 51.72292095702148 M834.8119733514884 50.69898303523666 C573.6680599937835 50.6908881504139, 314.3180942373971 49.87949410267677, -0.33324959054589276 51.1090147592128 M834.645791122193 51.31659271828837 C599.6133268973479 48.45067214595782, 364.66451020973415 47.86541019308077, -0.18099525682628156 50.97795773856348 M-0.9675019327551126 52.71420397795743 C-1.8776261317823084 36.48418270172556, 1.0438099992182104 21.853185244463404, -1.3381422702223063 -1.4655259009450674 M0.6322446288540959 50.08047941606498 C-0.35555819216184337 32.212660822738, 0.047633940549567155 11.322048459574596, -0.6497866390272975 0.14914751332253218" stroke="#000000" stroke-width="1" fill="none"></path></g><g><g transform="translate(922.3333333333334 435) rotate(0 -0.07316123681141562 55.9630483005196)"><path d="M0.47405395768582825 -0.941408547386527 C0.45722126029431825 17.99412233370046, -1.0764851782470939 93.9172941678514, -1.1319908950477837 112.86750514842569 M-0.7362064438685776 1.1787480198964477 C-0.30989759620279084 19.849800361754994, 0.9547412342205642 92.92745039419582, 0.9856684214249252 111.20037060257047" stroke="#000000" stroke-width="1" fill="none"></path></g></g><g><g transform="translate(1046.3333333333335 437.00000000000006) rotate(0 0.14310394540365223 56.48904425275509)"><path d="M-0.5805011596530676 1.0285223867744209 C-0.8319090094417334 19.58687190475563, -1.2187838163226843 93.81973562104007, -0.9958680119365453 112.45519581101834 M1.3155970021896066 0.522892694491893 C1.384178742449731 19.228743457614133, 1.3477358111552897 92.16867361030852, 1.1932558181695643 110.57159886302426" stroke="#000000" stroke-width="1" fill="none"></path></g></g><g><g transform="translate(1150.3333333333335 438.99999999999994) rotate(0 0.007845256683140178 55.498202693779035)"><path d="M-0.881225213035941 -0.022258457913994834 C-0.6451368775218724 18.46445180835823, 0.6373814735561608 92.37444336277743, 0.7619780335575341 111.04165785573423 M0.8569928207807243 -1.0795480936579407 C1.0590062436275183 17.5170528106081, 0.5183878782205282 93.014602916458, 0.21397103754803526 112.07595348121599" stroke="#000000" stroke-width="1" fill="none"></path></g></g><g><g transform="translate(1322.3333333333335 437.00000000000006) rotate(0 -0.030718124080408415 55.13480155523865)"><path d="M0.3850694205611944 -0.3140000905841589 C0.02939242385327817 18.268358488256734, -1.0626651499420405 92.22388048109909, -1.0983725879341364 110.85680783130229 M-0.8719078629836441 -1.524454083479941 C-0.9623365717753768 17.218010497453314, 0.9758167773857714 92.78499452189853, 1.0369363397732378 111.79405719395727" stroke="#000000" stroke-width="1" fill="none"></path></g></g><g transform="translate(1298.3333333333335 603) rotate(0 82.5 16)"><text x="0" y="23" font-family="Virgil, Segoe UI Emoji" font-size="20px" fill="#000000" text-anchor="start" style="white-space: pre;" direction="ltr">Envío a ...............</text></g></svg>