<svg version="1.1" xmlns="http://www.w3.org/2000/svg" viewBox="0 0 1529.1283042938758 959.3333333333333">
  <!-- svg-source:excalidraw -->
  <defs>
    <style>
      @font-face {
        font-family: "Virgil";
        src: url("https://excalidraw.com/FG_Virgil.woff2");
      }
      @font-face {
        font-family: "Cascadia";
        src: url("https://excalidraw.com/Cascadia.woff2");
      }
    </style>
  </defs>
  <rect x="0" y="0" width="1529.1283042938758" height="959.3333333333333" fill="#edf2ff"></rect><g transform="translate(618.3333333333334 10) rotate(0 444 60.5)"><path d="M-0.1641482599079609 -0.40065401718020444 C328.1459264025092 -1.2553290154337886, 658.0442571379244 -0.27160215634107626, 887.291492985934 -0.3420759789645672 M-0.011070209369063378 0.029923545941710473 C227.236039705202 -3.3876821135729553, 454.94749936647713 -3.154924533292651, 887.9955499712378 0.39266161881387235 M888.2226370554417 -1.0866967719048262 C887.7097402867581 27.528082471806556, 889.5224444326665 57.882212988100946, 887.910810528323 119.73501268215477 M888.2237456003204 0.42387306597083807 C888.5891748721618 46.51588697405532, 887.1684580798168 94.26854445971549, 888.8614670494571 120.87594434525818 M888.12500250265 121.39580541923642 C647.7206837415695 117.77387058854103, 407.538751912862 118.67104196667671, -0.6962376601994038 120.91190451458097 M887.7084905330091 120.7465188857168 C583.759741943702 118.67920651830732, 278.88366829641154 118.54060560859739, -0.21406332813203335 120.74908773861826 M1.729537246748805 119.49243781156838 C-0.5537112109269948 77.30414553089068, -2.917257522782311 35.77964299935847, 1.5334905963391066 -0.8754241149872541 M-0.7378639420494437 121.5696533313021 C-1.0332594258058816 94.66211288413032, -1.5260377568472177 67.12389521375297, -0.6698427340015769 0.021387009881436825" stroke="#000000" stroke-width="1" fill="none"></path></g><g transform="translate(624.3333333333334 14) rotate(0 51 55.5)"><path d="M-1.913847116753459 0.6858271937817335 C32.38261853884906 -1.3158064624853432, 60.166482342034584 -1.2241735598631203, 103.74202981777489 1.5213338118046522 M0.485107540152967 0.6260707238689065 C31.21250295005739 -1.302395027000457, 64.9296435000375 -0.934643458444625, 102.36042711045593 0.17704881820827723 M100.55170646496117 1.4227701406925917 C100.36944655722938 38.688783693034196, 99.88977978772483 73.58504436146467, 101.23666855879128 112.22800141386688 M101.08491083886474 -0.2688971599563956 C102.05646846157498 38.92289519393816, 102.25241613847203 75.5653873540461, 101.18743282463402 111.5698779085651 M103.58264586515725 110.89855700545013 C64.76466175261885 111.93401383357123, 29.73351426422596 111.96206717686728, -1.142454830929637 111.56285619549453 M102.95443516876549 110.54003147874027 C63.939305417239666 110.83945700386539, 24.93510000500828 112.04853814700618, 0.33137026336044073 110.57398267183453 M-1.4911338966339827 112.4756755810231 C0.3819224227312952 82.51862980378792, -1.73429906479083 52.226377041079104, -0.6728672068566084 0.027057824656367302 M-0.9740990111604333 110.26663227472454 C-0.13163492311723524 89.16465941770002, 0.4182651616167278 64.59083998017013, -0.7999541768804193 -0.5880721947178245" stroke="#000000" stroke-width="1" fill="none"></path></g><g transform="translate(637.5010395893885 41.607797413923294) rotate(326.7934296849105 33 23)"><text x="0" y="33" font-family="Virgil, Segoe UI Emoji" font-size="29.167338359014767px" fill="#000000" text-anchor="start" style="white-space: pre;" direction="ltr">Logo</text></g><g transform="translate(761.3333333333334 21) rotate(0 362.5 49)"><path d="M0.6450685389339924 0.5034428827464581 C224.35515617309142 -2.260889301728457, 449.67841595690703 -2.497373042535037, 725.2442372448743 0.7760473243892193 M-0.22407233752310277 -0.19580457769334317 C197.9155806900002 1.1902053139172495, 395.3728847032413 0.7340184352360666, 725.3793628331274 0.22331789173185826 M726.1847656089813 1.8207111340016127 C724.3285704852082 24.408112562634052, 724.3687210679985 46.47671325579286, 725.5971485096961 98.95571154169738 M724.7049495270476 -0.3813798865303397 C725.3874398499169 34.42984074167907, 724.6589585869946 70.95476166438311, 725.9814503183588 97.58831749949604 M724.6795330412685 97.5394350759685 C531.2042344984599 97.40618095649407, 337.39000849593424 98.31858179820702, -0.5763260237872601 97.36650576516986 M725.3795873638243 97.86163916029037 C526.0278910211288 95.77245504120366, 326.51325484383847 95.78673553923146, -0.040794146433472636 97.62575750984251 M1.0511735994368792 99.20081841759384 C1.4151161718927323 74.34516632091254, -0.6600477289594711 53.05994688719511, 0.910581799224019 -1.3059696573764086 M0.1646431377157569 97.48890067730099 C1.1749811160378159 71.7373072721064, -0.29415223123505707 44.0620240246877, -0.6460466990247369 0.6797913769260049" stroke="#000000" stroke-width="1" fill="none"></path></g><g transform="translate(620.3333333333334 144.9999999999999) rotate(0 446 402.1666666666667)"><path d="M0.3262379638850689 0.6327546961605549 C265.58512639291587 -0.956992397263646, 531.5533890590073 0.08092223648726954, 892.1642987959087 -0.33282269164919853 M-0.017746513709425926 0.158036732301116 C258.00853617861867 2.9791382456719875, 516.7548204731196 3.243413999170065, 892.374855035916 0.22743869982659817 M892.3348037473858 -0.2883099429309368 C892.9226422274845 300.1551134235226, 893.8811948025959 600.3602685099468, 891.4597046367824 803.7358554569383 M891.7431227628142 0.27888380251824857 C892.3277012615713 316.5603277238397, 892.9488131194624 632.0974475332226, 892.3730476919561 804.5184717492511 M891.9610994808376 804.9663728443285 C621.3763624485582 801.9075866363992, 349.1429430127144 802.0318461798181, -0.5768910177052021 803.6270176855227 M891.7789466444403 804.2668071107319 C642.4465637266635 805.1809239487251, 392.9261013563722 804.8307503919204, -0.16936901174485686 804.7217673973491 M-0.33659846857190134 804.3886568990847 C1.0262393584512175 623.612356101318, 1.217172609832138 441.43474991414695, -0.3067430503666401 -0.3937842480838299 M-0.3626552399247885 804.2022469238689 C0.6989535733647646 599.0201712509306, 0.015191011089831674 394.3561493957415, 0.33624017871916295 0.24966695271432401" stroke="#000000" stroke-width="1" fill="none"></path></g><g transform="translate(946.6666666666664 170.66666666666669) rotate(0 98.5 16)"><text x="0" y="23" font-family="Virgil, Segoe UI Emoji" font-size="20px" fill="#000000" text-anchor="start" style="white-space: pre;" direction="ltr">Completá tus datos</text></g><g transform="translate(675.3333333333334 866.3333333333334) rotate(0 390 27.5)"><path d="M0.12539803907275202 0.28874408081173897 C157.27592040933672 -0.3333160123974086, 314.5726090088487 0.018675617203116335, 779.7397703640163 0.05524143055081368 M0.3227966252714396 0.11589847765862943 C171.6470915965736 1.229339416176081, 342.98412498645484 1.4299909783899787, 780.012331539765 0.055755996331572535 M779.5112382154912 -1.020100025460124 C778.6480398675892 21.129894032608718, 779.5475283762905 39.55805772263557, 780.0769522767514 53.56335106678307 M779.6880933204666 -0.04732775781303644 C778.9708152107429 14.43183642020449, 779.9147262565326 31.1401256211102, 779.4236045340076 55.814461081288755 M779.5922160379589 55.66036831215024 C479.47211442403494 53.76063737161458, 180.0635598987341 53.90205008275807, -0.2700977332890034 55.512316406518224 M779.7417561713606 54.91214774809778 C504.6211919263005 53.791529847681524, 228.70606629513205 53.481272138655186, -0.01829311214387417 55.173183703050015 M-1.931736471131444 56.14880201406777 C1.5055992753710599 40.70905562164262, 1.1717084200587125 30.393792337737978, 1.0783707480877638 -1.9656190555542707 M-0.3475289782509208 55.42869084980339 C-1.1107545081060382 34.67312589706853, -0.018934297887608476 13.019427666440606, -0.2718058964237571 -0.3424262711778283" stroke="#000000" stroke-width="1" fill="none"></path></g><g transform="translate(733.6666666666667 870.1379928315413) rotate(0 58.16666666666663 20.01433691756273)"><text x="0" y="29.02867383512543" font-family="Virgil, Segoe UI Emoji" font-size="25.017921146953398px" fill="#000000" text-anchor="start" style="white-space: pre;" direction="ltr">Contacto</text></g><g transform="translate(965.3333333333334 866.0057471264366) rotate(0 92.5 20.413793103448313)"><text x="0" y="29.827586206896576" font-family="Virgil, Segoe UI Emoji" font-size="25.51724137931036px" fill="#000000" text-anchor="start" style="white-space: pre;" direction="ltr">Redes Sociales</text></g><g transform="translate(1278.6666666666667 862.764367816092) rotate(0 49.00000000000006 27.034482758620697)"><text x="0" y="39.06896551724138" font-family="Virgil, Segoe UI Emoji" font-size="33.79310344827585px" fill="#000000" text-anchor="start" style="white-space: pre;" direction="ltr">Ayuda</text></g><g><g transform="translate(631 840.3333333333334) rotate(0 443.584673552836 -2.5432258716225533)"><path d="M-0.9589571882039308 -1.022431791946292 C147.0214274569932 -1.6307790370037158, 739.7692815718965 -3.787020759905378, 888.1283042938759 -4.356763650104403 M0.7384515586495399 1.055187571942806 C148.52135018709632 0.15932577143112792, 739.0487021948563 -4.884129870633284, 887.0726185845335 -6.141639315187931" stroke="#000000" stroke-width="1" fill="none"></path></g></g><g transform="translate(1006.3333333333337 26.166666666666686) rotate(0 98.33333333333343 39.333333333333385)"><text x="0" y="57.66666666666677" font-family="Virgil, Segoe UI Emoji" font-size="49.16666666666671px" fill="#000000" text-anchor="start" style="white-space: pre;" direction="ltr">IMAGEN</text></g><g transform="translate(10 136.26923076923083) rotate(0 303.5 256.5)"><text x="0" y="124" font-family="Virgil, Segoe UI Emoji" font-size="109.10256410256413px" fill="#000000" text-anchor="start" style="white-space: pre;" direction="ltr">Formulario</text><text x="0" y="295" font-family="Virgil, Segoe UI Emoji" font-size="109.10256410256413px" fill="#000000" text-anchor="start" style="white-space: pre;" direction="ltr">de registro</text><text x="0" y="466" font-family="Virgil, Segoe UI Emoji" font-size="109.10256410256413px" fill="#000000" text-anchor="start" style="white-space: pre;" direction="ltr">persona</text></g><g transform="translate(839.9999999999999 261.5) rotate(0 221.33333333333326 24.50000000000003)"><path d="M0.030847704603870978 0.5759601334550183 C107.82603302142641 0.6887008880848865, 214.1562416189214 1.5565750780368552, 442.658008628535 0.26747815709510236 M-0.12310747953781903 0.47227202994130096 C167.09386021001407 0.06289221435902914, 333.6017578235913 0.6392233650985681, 442.3918496115505 -0.2430291007868608 M440.6787204189845 -0.1533218566328287 C441.93394201382665 16.810296673979625, 443.5978645025161 32.03771487195048, 440.8689131780215 49.64134961925451 M442.800616634699 -0.10109310131520033 C442.7560546628539 11.306812530662874, 443.3240000537936 21.838082611188312, 441.86275969228376 49.606439572759015 M442.8020673940558 48.329449413317704 C334.16335942233013 50.566652941012215, 226.23914868239993 50.29102043781081, 0.0367949825468384 49.268637718435144 M442.56325427535324 48.81925172084308 C342.79925911037066 49.27569368832765, 243.52184095205502 49.51654107906429, -0.18288432559109752 48.768834592137466 M-0.05786571465432644 47.76408792100851 C1.12988413403742 32.923342345003064, 0.38169343302957703 18.19588374104352, 0.2670812252908945 0.27782601676881313 M-0.5535453232005239 48.81370378751312 C-0.7309575591143221 37.28377312468368, -0.8491369698103518 24.543283570557854, 0.17092645447701216 0.7908840598538518" stroke="#000000" stroke-width="1" fill="none"></path></g><g transform="translate(859.8333333333334 267) rotate(0 33.5 16)"><text x="0" y="23" font-family="Virgil, Segoe UI Emoji" font-size="20px" fill="#000000" text-anchor="start" style="white-space: pre;" direction="ltr">Nombre</text></g><g transform="translate(840.8333333333334 207.00000000000006) rotate(0 217.5 16)"><text x="0" y="23" font-family="Virgil, Segoe UI Emoji" font-size="20px" fill="#000000" text-anchor="start" style="white-space: pre;" direction="ltr">----------O creá una cuenta empresa----------</text></g><g transform="translate(838.0000000000001 324.5) rotate(0 221.33333333333326 24.50000000000003)"><path d="M0.4621344787426534 0.40947938660931016 C133.40723390701925 -1.0959365921307809, 267.3798534154289 -1.4546876583491573, 441.8058176768188 0.3355918615869941 M-0.04994453775947395 0.21659301243441417 C157.9978646066716 0.3961204056881014, 316.0649724053233 0.5160935091998164, 442.92708231583737 -0.24016287165934755 M444.53778615097184 0.8086269050836563 C443.49349800082524 13.47674893513323, 440.3370501134046 24.813587395846866, 443.1939307699599 48.565530076623006 M443.39102058360953 -0.7120752409100533 C441.8639489908763 13.928658918291344, 442.83018486695966 27.07133857309821, 443.42620282123465 48.569717161357445 M443.18907258149807 49.21241243600014 C318.49585799838815 51.052971320059925, 192.56703810048936 51.4274708252893, -0.9469675804067081 48.53562058782109 M442.3095666101515 48.77976556418254 C299.83332452392216 48.68779823486577, 155.78658026124936 48.327070403337196, -0.24101172862394168 49.39710359371793 M1.8196315616369247 48.43511177599434 C0.477013264372945 38.34605959877375, -1.4253757851570843 23.571231664717217, 1.3942026942968369 -0.4417435973882675 M-0.44447457045316696 49.768009655177636 C0.5704856207221746 32.958075314015176, 0.5656979372352361 15.694520062208184, -0.1504880115389824 -0.20680499821901321" stroke="#000000" stroke-width="1" fill="none"></path></g><g transform="translate(857.8333333333336 330) rotate(0 36 16)"><text x="0" y="23" font-family="Virgil, Segoe UI Emoji" font-size="20px" fill="#000000" text-anchor="start" style="white-space: pre;" direction="ltr">Apellido</text></g><g transform="translate(838.0000000000001 388.5) rotate(0 221.33333333333326 24.50000000000003)"><path d="M-0.4404718102614942 0.7610932674269264 C146.5538535885828 -1.7834759566533605, 292.51424744450105 -2.87978293316875, 442.51753388996417 -0.2049425951270522 M-0.43631698741814817 0.14668353858167837 C102.42464714877353 -0.3851351642075692, 204.63563034260986 -0.5788608817283785, 442.9452508171333 -0.25848081466434314 M442.2712044070162 -1.3587355762720108 C443.084711797113 20.094799824804088, 443.7615835736938 40.849589498341125, 443.34039395550866 50.489959701895756 M442.97575679669757 0.08966673165559769 C443.1906344676264 19.859375628083964, 443.2971334243067 37.89020055234436, 443.51424780736346 48.58924258500342 M442.44529837510726 48.23281894693632 C296.17498599797665 50.4399934914138, 148.83445077909187 49.80441967489597, 0.30031463993706126 49.22190120187502 M442.9139404754422 48.62647541364333 C277.20881575599077 50.455832350386814, 111.92091622172305 50.71292773187113, -0.3081490440069886 49.163440738662686 M-0.013056978583335876 50.72658680379395 C-0.24689417310059103 33.39104194417599, -1.6478117031604054 17.601868544518965, -1.8334853500127792 -0.17133046686649323 M-0.6732578352093697 48.17103660851721 C-0.9489022936671972 30.648075348883893, 0.4584542069584131 10.271484023332604, 0.3459308072924614 0.4259988144040108" stroke="#000000" stroke-width="1" fill="none"></path></g><g transform="translate(857.8333333333336 394) rotate(0 91 16)"><text x="0" y="23" font-family="Virgil, Segoe UI Emoji" font-size="20px" fill="#000000" text-anchor="start" style="white-space: pre;" direction="ltr">Elegí una provincia</text></g><g transform="translate(838.0000000000001 448.5) rotate(0 221.33333333333326 24.5)"><path d="M-0.039403474103301785 0.6641495595205729 C146.70928342353974 -2.3526908282768666, 291.923082762058 -1.633945671600955, 441.9937917196454 0.48588674693111805 M0.32207329001390655 0.07963506127388781 C105.26738453230979 -0.19851464417830184, 210.55897903126765 -0.50484711124459, 442.3373315801983 0.19820589357111765 M442.8994504461684 0.7058203369379044 C441.27817503186543 8.55003410950304, 440.8409501669057 21.476538531482237, 443.6976391325392 47.07190014421944 M441.9879708761968 0.6754982396960258 C443.85093445258815 16.124857834726587, 441.90055198150355 33.60765706598762, 441.906110572318 48.19676970690493 M441.9956561378684 48.31173398934354 C342.94787987391334 49.664204825584854, 241.17050649341164 50.38311631738039, -0.5445573256293718 49.79078894461297 M442.1835090435706 48.56058513911454 C351.7092043592588 47.61007734457453, 260.3242942821949 48.36252083875702, 0.3354811056405278 49.168959973908116 M1.700003132224083 49.85119558870797 C-0.30663330249488385 35.942339815944464, 0.5053178579360244 19.10503250509502, -1.5980301052331924 1.488790288567543 M-0.9743095561861992 48.10341333597903 C1.0477701594680549 30.10297031924131, 0.13661803506314768 13.758525532484065, -0.26660382002592087 0.7670035287737846" stroke="#000000" stroke-width="1" fill="none"></path></g><g transform="translate(861.8333333333336 454) rotate(0 21.5 16)"><text x="0" y="23" font-family="Virgil, Segoe UI Emoji" font-size="20px" fill="#000000" text-anchor="start" style="white-space: pre;" direction="ltr">DNI</text></g><g transform="translate(834.0000000000001 566.5) rotate(0 221.33333333333326 24.5)"><path d="M-0.9663152461917466 -0.8788297217709964 C91.70562569579627 0.18492996158175234, 182.55635585228015 1.689816949946736, 443.3376288779475 0.33791994781613965 M0.4211733960041317 0.2108825154285641 C131.29565566839574 -1.2921827653113775, 262.7770456478461 -1.8633757940809663, 442.2707569453371 0.368845709686205 M440.71804755429406 -1.7931733280420303 C444.214319631929 16.56668355092408, 442.3920153831192 38.238536889851126, 442.1334590266146 50.53400705754761 M442.2518393124141 -0.1312171146273613 C442.49203876736243 15.56225224360825, 442.18430737736304 29.894279035925894, 441.87576428304095 49.35104001313452 M443.2576663407151 48.398478802684686 C351.9166880171123 48.23657753409599, 261.47441078417717 49.436693219177286, -0.246290443197781 48.282838799920754 M443.0546625856345 49.147838906103004 C340.06125521374366 49.678972701985174, 237.11611148895065 49.77876798511134, 0.016925303544929635 49.421941817297906 M0.5349214226007462 50.19199036061768 C-1.7547422880679373 38.85402111783627, 1.0463360314816232 26.510665522515797, 1.1642305999994278 -1.4247074276208878 M0.8154406473040581 49.13548601418738 C0.4407479033619169 33.48907252028587, 0.16141311980783973 19.147720366716403, 0.10268043726682663 0.4873873069882393" stroke="#000000" stroke-width="1" fill="none"></path></g><g transform="translate(849.8333333333336 572) rotate(0 28.5 16)"><text x="0" y="23" font-family="Virgil, Segoe UI Emoji" font-size="20px" fill="#000000" text-anchor="start" style="white-space: pre;" direction="ltr">E-mail</text></g><g><g transform="translate(1263.3333333333335 409) rotate(0 0.4192281372891671 5.553537776540054)"><path d="M-0.5395663350820541 -0.6065607458353043 C-0.5154100507497787 1.0414402574300765, 0.4498091608285903 8.738002356886863, 0.7062377840280532 10.804072818160057 M1.3780226096604018 1.6893909172620627 C1.2568396544549612 3.356960195442662, 0.23234010131098337 9.829030382474885, 0.12896715701557704 11.713636298915372" stroke="#000000" stroke-width="1" fill="none"></path></g><g transform="translate(1263.3333333333335 409) rotate(0 0.4192281372891671 5.553537776540054)"><path d="M-1.602913361119718 6.2393113580740245 C-1.3577076893425484 8.412930579022978, -0.36941026287280465 9.349066996963106, 0.05500535518862315 11.503500310024247 M-1.1952716708953088 5.911340180525855 C-0.7833265937999319 7.487860104456668, -0.6858968404537695 9.318536056961195, 0.033771193781867714 11.909295044532046" stroke="#000000" stroke-width="1" fill="none"></path></g><g transform="translate(1263.3333333333335 409) rotate(0 0.4192281372891671 5.553537776540054)"><path d="M2.4771242733186547 6.684387752640289 C1.3040772036491133 8.685320179357499, 0.8775195529045494 9.467115227677638, 0.05500535518862315 11.503500310024247 M2.884765963543064 6.356416575092119 C1.9908660215651794 7.820953929540119, 0.7788211354298102 9.508784079251793, 0.033771193781867714 11.909295044532046" stroke="#000000" stroke-width="1" fill="none"></path></g></g><g transform="translate(834.0000000000001 630.5) rotate(0 221.33333333333326 24.5)"><path d="M0.022933447235351814 -0.9113077023332185 C168.49372148557663 -1.9848908511751917, 336.2106107155744 -1.9970826956467418, 443.04261687137955 0.4028789066349449 M0.020451485515233885 0.18323490585434746 C137.28798004901472 -1.9993107109131707, 274.05451101253556 -1.8731567455697906, 442.67693166186905 0.004383422880581024 M442.4268075476088 1.7604639679193497 C442.36141400548297 8.857200876623402, 443.8632150194295 20.241306559741517, 444.6045738706984 49.718645825982136 M443.5109897131719 0.3177778646349907 C441.8621725221225 19.963550785928984, 442.06483570533476 37.712099280953446, 443.60701637218375 48.62063502520327 M443.1207837453887 48.889379001464356 C324.02012338704077 51.161155892935746, 205.1386549129274 50.31878546639633, -0.4323501111510697 49.3698486267289 M442.8955334580905 49.02331762834832 C345.0422788542922 48.808073891879175, 247.8157182761012 49.55654046456508, -0.45487864445140685 49.01587448615214 M-0.25664855539798737 48.31758238375191 C-0.542591544911265 29.967818465083866, 2.3216667444258934 13.519681133329883, -1.8352604061365128 -1.8550646156072617 M-0.18487226217985153 49.03103231638674 C0.2547493293136361 39.51136713549498, -0.34124776579439614 27.904536122083687, -0.8129514381289482 0.02113007754087448" stroke="#000000" stroke-width="1" fill="none"></path></g><g transform="translate(849.8333333333336 636) rotate(0 27 16)"><text x="0" y="23" font-family="Virgil, Segoe UI Emoji" font-size="20px" fill="#000000" text-anchor="start" style="white-space: pre;" direction="ltr">Clave</text></g><g transform="translate(836.0000000000001 506.5) rotate(0 221.33333333333326 24.5)"><path d="M-0.8495767139636462 -0.5872989391414228 C119.59841779367493 1.6447192896420884, 236.71510545019655 2.0052617661971497, 441.80857732766714 0.7534483641565745 M0.06922323442375367 -0.15836793098904797 C142.20016209164783 1.6242447228647372, 284.9813843187175 1.5219941065522333, 442.5651484365557 0.08082232544453447 M442.55507435897965 1.3277156502008438 C440.7460105893262 14.197536746412528, 444.20821504565555 27.282949273288274, 442.5671760092177 50.48647429049019 M442.4359653467931 -0.183411605656147 C443.34937127786355 18.924922803789393, 443.4164372320719 36.8867652088404, 443.02363781879325 48.35448431223635 M441.8313924102761 49.07452818251504 C296.28524773517404 50.25712279454601, 149.60414561403311 50.127657130048824, -0.04563537057394388 48.12458382515629 M442.5252692372175 48.58311586900127 C275.2333611663853 50.09546891415471, 108.73617583473468 49.504775219051915, -0.11156142177274532 48.882179207814 M1.4003963321447372 47.53134895861153 C-1.0333496659249066 34.35177935585382, 0.6516636282950642 21.03330899626018, 1.2371744960546494 -0.34990094602108 M-0.2828305885195732 48.48466157168154 C0.030035867914557368 29.20151174589994, -0.10829673744738111 10.316303509473805, 0.8605212047696114 0.21907543390989304" stroke="#000000" stroke-width="1" fill="none"></path></g><g transform="translate(859.8333333333336 512) rotate(0 101.5 16)"><text x="0" y="23" font-family="Virgil, Segoe UI Emoji" font-size="20px" fill="#000000" text-anchor="start" style="white-space: pre;" direction="ltr">Tipo de alimentación</text></g><g><g transform="translate(1259.3333333333335 523) rotate(0 0.3598611015128199 5.908057347605904)"><path d="M0.8763776689767837 -1.1735408216714858 C0.7397581964731216 0.8679019540548325, -0.47322998940944666 9.515181216597556, -0.7890029042959212 11.640806731581687 M-0.1226627841498702 0.8247463016118854 C0.12097123146988462 3.092314282795414, 1.264705397197977 11.014228143533693, 1.5087251073215158 12.989655516883358" stroke="#000000" stroke-width="1" fill="none"></path></g><g transform="translate(1259.3333333333335 523) rotate(0 0.3598611015128199 5.908057347605904)"><path d="M-1.865120223950879 7.2817546455431 C-0.6416050475790397 8.75439120990083, 0.17135369904731218 10.684340505763803, 1.2832602670881899 13.576352614006028 M-1.3180539474303883 7.517988566147091 C-0.17405629014843177 9.96093028641137, 0.6119396516832636 11.37343318508043, 1.3541659934911878 13.266671813121066" stroke="#000000" stroke-width="1" fill="none"></path></g><g transform="translate(1259.3333333333335 523) rotate(0 0.3598611015128199 5.908057347605904)"><path d="M2.202318753101471 6.733356739466756 C2.1924137862359765 8.401621402667304, 1.7747302531654874 10.497493691627977, 1.2832602670881899 13.576352614006028 M2.7493850296219615 6.969590660070747 C2.363133475951589 9.631896687159289, 1.6200603314198667 11.250558372705946, 1.3541659934911878 13.266671813121066" stroke="#000000" stroke-width="1" fill="none"></path></g></g><g transform="translate(832.0000000000001 716.5) rotate(0 221.33333333333326 24.5)"><path d="M-0.795920746320874 0.9625423451153344 C162.98223743886984 0.8626808514363487, 328.01209008132986 2.5677521562747208, 442.3985454478318 -0.09249036712736493 M-0.333343144115326 -0.030836790892103335 C169.30142773663505 2.179817189736237, 339.1350711546199 2.417689523872532, 442.7839219356894 0.4600726077081892 M442.9540385554232 -0.2715578228235245 C442.78775527464825 14.923564478009952, 442.3487975834556 28.502460582554367, 444.56636470059533 49.323795780539555 M442.7619222725429 0.0833512619137764 C442.4279210663088 18.747315772622844, 442.8339119053133 39.79910529553894, 443.62857643018145 49.34619463235144 M442.14167038949955 48.61350167671213 C346.8020624618175 49.23585835597011, 252.2288133550767 49.304993516509164, 0.4455722173969689 48.674048369071485 M442.33207482779653 49.144077109786004 C353.77203785835627 48.627154984556, 264.8444872224395 48.16928531672086, 0.1833798584053309 49.36716428372199 M-0.19536565244197845 50.50459097325806 C0.5986867313832049 29.728702805191304, 1.922760046049953 8.987955628335484, -0.9501964896917343 1.0652460902929306 M0.5672075673937798 48.67648566514258 C-0.12969000242650486 33.4261251755059, 0.7114357242733242 17.49571860432626, 0.8173913881182671 0.29969585686922073" stroke="#000000" stroke-width="1" fill="none"></path></g><g transform="translate(953.8333333333336 722) rotate(0 92 16)"><text x="0" y="23" font-family="Virgil, Segoe UI Emoji" font-size="20px" fill="#000000" text-anchor="start" style="white-space: pre;" direction="ltr">----Registrarme----</text></g></svg>