<svg version="1.1" xmlns="http://www.w3.org/2000/svg" viewBox="0 0 1308.3333333333335 785.3333333333333">
  <!-- svg-source:excalidraw -->
  <defs>
    <style>
      @font-face {
        font-family: "Virgil";
        src: url("https://excalidraw.com/FG_Virgil.woff2");
      }
      @font-face {
        font-family: "Cascadia";
        src: url("https://excalidraw.com/Cascadia.woff2");
      }
    </style>
  </defs>
  <rect x="0" y="0" width="1308.3333333333335" height="785.3333333333333" fill="#edf2ff"></rect><g transform="translate(404.33333333333337 10) rotate(0 444 60.5)"><path d="M-0.1641482599079609 -0.40065401718020444 C328.1459264025092 -1.2553290154337886, 658.0442571379244 -0.27160215634107626, 887.291492985934 -0.3420759789645672 M-0.011070209369063378 0.029923545941710473 C227.236039705202 -3.3876821135729553, 454.94749936647713 -3.154924533292651, 887.9955499712378 0.39266161881387235 M888.2226370554417 -1.0866967719048262 C887.7097402867581 27.528082471806556, 889.5224444326665 57.882212988100946, 887.910810528323 119.73501268215477 M888.2237456003204 0.42387306597083807 C888.5891748721618 46.51588697405532, 887.1684580798168 94.26854445971549, 888.8614670494571 120.87594434525818 M888.12500250265 121.39580541923642 C647.7206837415695 117.77387058854103, 407.538751912862 118.67104196667671, -0.6962376601994038 120.91190451458097 M887.7084905330091 120.7465188857168 C583.759741943702 118.67920651830732, 278.88366829641154 118.54060560859739, -0.21406332813203335 120.74908773861826 M1.729537246748805 119.49243781156838 C-0.5537112109269948 77.30414553089068, -2.917257522782311 35.77964299935847, 1.5334905963391066 -0.8754241149872541 M-0.7378639420494437 121.5696533313021 C-1.0332594258058816 94.66211288413032, -1.5260377568472177 67.12389521375297, -0.6698427340015769 0.021387009881436825" stroke="#000000" stroke-width="1" fill="none"></path></g><g transform="translate(410.33333333333337 14) rotate(0 51 55.5)"><path d="M-1.913847116753459 0.6858271937817335 C32.38261853884906 -1.3158064624853432, 60.166482342034584 -1.2241735598631203, 103.74202981777489 1.5213338118046522 M0.485107540152967 0.6260707238689065 C31.21250295005739 -1.302395027000457, 64.9296435000375 -0.934643458444625, 102.36042711045593 0.17704881820827723 M100.55170646496117 1.4227701406925917 C100.36944655722938 38.688783693034196, 99.88977978772483 73.58504436146467, 101.23666855879128 112.22800141386688 M101.08491083886474 -0.2688971599563956 C102.05646846157498 38.92289519393816, 102.25241613847203 75.5653873540461, 101.18743282463402 111.5698779085651 M103.58264586515725 110.89855700545013 C64.76466175261885 111.93401383357123, 29.73351426422596 111.96206717686728, -1.142454830929637 111.56285619549453 M102.95443516876549 110.54003147874027 C63.939305417239666 110.83945700386539, 24.93510000500828 112.04853814700618, 0.33137026336044073 110.57398267183453 M-1.4911338966339827 112.4756755810231 C0.3819224227312952 82.51862980378792, -1.73429906479083 52.226377041079104, -0.6728672068566084 0.027057824656367302 M-0.9740990111604333 110.26663227472454 C-0.13163492311723524 89.16465941770002, 0.4182651616167278 64.59083998017013, -0.7999541768804193 -0.5880721947178245" stroke="#000000" stroke-width="1" fill="none"></path></g><g transform="translate(423.59530745009306 41.25620508027343) rotate(326.7934296849105 33.54243911286699 23.33387068721182)"><text x="0" y="33.667741374423635" font-family="Virgil, Segoe UI Emoji" font-size="29.167338359014767px" fill="#000000" text-anchor="start" style="white-space: pre;" direction="ltr">Logo</text></g><g transform="translate(547.3333333333334 21) rotate(0 362.5 49)"><path d="M0.6450685389339924 0.5034428827464581 C224.35515617309142 -2.260889301728457, 449.67841595690703 -2.497373042535037, 725.2442372448743 0.7760473243892193 M-0.22407233752310277 -0.19580457769334317 C197.9155806900002 1.1902053139172495, 395.3728847032413 0.7340184352360666, 725.3793628331274 0.22331789173185826 M726.1847656089813 1.8207111340016127 C724.3285704852082 24.408112562634052, 724.3687210679985 46.47671325579286, 725.5971485096961 98.95571154169738 M724.7049495270476 -0.3813798865303397 C725.3874398499169 34.42984074167907, 724.6589585869946 70.95476166438311, 725.9814503183588 97.58831749949604 M724.6795330412685 97.5394350759685 C531.2042344984599 97.40618095649407, 337.39000849593424 98.31858179820702, -0.5763260237872601 97.36650576516986 M725.3795873638243 97.86163916029037 C526.0278910211288 95.77245504120366, 326.51325484383847 95.78673553923146, -0.040794146433472636 97.62575750984251 M1.0511735994368792 99.20081841759384 C1.4151161718927323 74.34516632091254, -0.6600477289594711 53.05994688719511, 0.910581799224019 -1.3059696573764086 M0.1646431377157569 97.48890067730099 C1.1749811160378159 71.7373072721064, -0.29415223123505707 44.0620240246877, -0.6460466990247369 0.6797913769260049" stroke="#000000" stroke-width="1" fill="none"></path></g><g transform="translate(405.33333333333337 135) rotate(0 445.5 39.5)"><path d="M-0.42824927493929865 -0.020750594884157182 C270.01581575097515 2.77591028566286, 539.6331115202978 2.983832672785968, 890.3190975315869 -0.6430527694523335 M0.10516850911080838 -0.21089671216905118 C356.1787191218696 2.0601857206560674, 712.4937976734712 2.099495973322541, 890.6911796685308 0.133779651299119 M890.8099656421691 -1.1484868545085192 C892.613705750471 24.41396646173671, 892.6711369118747 49.905128808133306, 891.2195027787238 78.61863177828491 M891.239588051103 -0.8451852044090629 C891.637240665676 19.166565863136203, 891.4505951876658 39.2522467173636, 891.3564399471506 78.71268890891224 M890.4513507254421 78.35086781904101 C694.5571935686282 79.03479077051952, 498.1029175458476 79.92030867766216, -0.4955880515277386 79.66916470453143 M890.9015436645598 79.21423196233809 C574.0332888827659 76.19455592137203, 256.4665962195023 76.65404058199748, -0.03382045067846775 79.25302529968322 M-0.008150903508067131 77.54773676209152 C2.0032542119268326 51.458213966619226, -0.07171895406208928 23.089758599735795, -0.7028579991310835 0.34152394346892834 M0.2555331876501441 79.84250106010586 C0.9510481921862811 48.75998427672312, 1.0596393017005177 18.137444643303752, 0.14286047127097845 0.017808721400797367" stroke="#000000" stroke-width="1" fill="none"></path></g><g transform="translate(429.3333333333335 231.33333333333337) rotate(0 76.5 27.5)"><path d="M-1.5057505387812853 -0.08425751142203808 C45.98770327465609 -0.7281895640585572, 91.99372842293234 1.997544133355841, 152.5209620576352 0.3594841081649065 M-0.359824045561254 0.9334967127069831 C51.74881607452407 0.3265183611679823, 102.85527514144778 0.5981563075352461, 152.23259024415165 0.36367544438689947 M153.12523346953094 1.1448077280074358 C154.51813209415414 20.880894124042243, 151.60162061811425 43.83100220281631, 152.22146320156753 54.25020286627114 M153.19194059167057 -0.835699469782412 C152.89763052235358 12.102736988570541, 153.19654778609984 25.630009163171053, 153.23758764658123 55.59328812267631 M151.5250296574086 56.706592770293355 C96.69177829353139 53.274943065503614, 43.74939416293054 55.768052708962934, -1.8593333382159472 55.120430978015065 M153.159668401815 54.35342401172966 C96.10386099843308 57.114537899820135, 40.70145115517079 55.84187385949306, 0.9887789348140359 54.347962408326566 M0.6947976928204298 53.57943013496697 C-0.6066193445120007 42.569972668308765, -0.8413490517530591 26.218506610952318, -0.8940960187464952 1.0910790879279375 M0.5159240821376443 55.17136886622757 C0.675422288151458 39.64669906022027, 0.5504103374201805 24.12852854467928, -0.3762321313843131 0.8987859478220344" stroke="#000000" stroke-width="1" fill="none"></path></g><g transform="translate(600.3333333333334 236.66666666666674) rotate(0 78.5 23)"><path d="M-0.16226216964423656 -0.5571908969432116 C46.27091748630629 -2.8776478136610244, 92.90041862968357 -3.2746337617468093, 158.1263109166175 0.1542560439556837 M-0.8963702628389001 -0.6889574965462089 C31.466641828697178 0.6760374768730253, 64.70566004663706 1.0566073819156736, 157.92763113882393 -0.3172978302463889 M157.42257508821785 -1.8779166359454393 C156.1277785106562 12.000897157005966, 156.93125573834405 25.145761288702488, 157.2089222986251 46.88827693276107 M156.9365310659632 0.2910851100459695 C158.36274901909755 8.586825536936521, 158.3148755518906 18.923079002462327, 157.47848805692047 45.09699560794979 M157.15330353565514 46.11496960930526 C126.12064666608347 48.13168422634713, 91.81421851050108 48.481055242372676, 0.45726129598915577 46.46001869253814 M157.5950921466574 45.693011299706995 C96.98433421337977 48.141332669714465, 39.18677723072469 47.412365450123325, 0.938348232768476 45.00754396710545 M-0.040572432801127434 47.528096256777644 C-0.8495909804664552 36.83696705941111, 1.6929418807663024 25.52846534922719, -1.3690895717591047 0.677281616255641 M-0.14764624927192926 46.967901394702494 C-0.1145334087871015 29.485388907417654, -0.2472362064383924 13.548577447049318, -0.16291162464767694 0.09296663198620081" stroke="#000000" stroke-width="1" fill="none"></path></g><g transform="translate(786.0000000000001 228.66666666666669) rotate(0 66.5 26.5)"><path d="M-0.613977400586009 -1.3031036872416735 C29.451154912915083 1.0385376783926041, 55.56246222946793 1.0852239104826005, 131.0150879342109 -1.6903277058154345 M0.7640481283888221 -0.6327945431694388 C28.246835346054286 0.6654525552596897, 55.42093630731106 -0.6575641180668026, 133.33864080812782 0.5304491380229592 M134.935802789405 -0.8635526318103075 C132.1831798137445 11.115851756092162, 132.78968896281904 24.16379671711475, 133.1859332639724 52.18458521179855 M132.81119429972023 0.16004179511219263 C132.3712768001016 14.458416087832303, 132.55891129798255 27.312073927000167, 132.84483143594116 52.858244315721095 M132.88562455959618 51.98311626724899 C100.26419287556783 53.54282567578368, 70.67196842115372 53.01409152823501, 0.6282190997153521 53.76416235975921 M133.25028440263122 52.47839941177517 C100.35757401892914 54.26593059086241, 68.74180970303713 53.20910921477713, 0.8380282511934638 53.4617133596912 M-1.0459451954811811 52.17946892790496 C0.04651256504468615 41.361341720912606, 0.9091671914141625 26.025207235477865, 1.1405904609709978 1.442141531035304 M0.39732795860618353 52.41788987908512 C0.4607253281865269 32.58032489465549, 0.2776418237481266 12.779793944954868, 0.2660767128691077 -0.21099309530109167" stroke="#000000" stroke-width="1" fill="none"></path></g><g transform="translate(955.8333333333334 231.50000000000006) rotate(0 66.5 26.5)"><path d="M-1.118732063099742 1.6845821123570204 C34.1352028801106 -0.007599163977429324, 66.3009134123102 -0.8721563706081361, 134.91587755270302 1.32534652762115 M-0.6344143459573388 0.18510629329830408 C37.85074522597716 -1.1370513661298902, 76.75945731103421 -0.541769318142906, 133.44947284366935 0.5036367634311318 M134.61384460516274 1.892935810610652 C135.20677045893856 11.660756113287063, 132.13803623032757 23.65690702814609, 132.5140261966735 54.5585396271199 M132.15229672100395 0.5150195816531777 C133.65124663836323 15.724109639134259, 132.92720472938382 34.102924161031844, 133.83176401164383 53.08060605917126 M133.55444625206292 52.67503332905471 C82.19723279708995 53.48666402000003, 27.47701465766876 53.56597354310565, -0.4998075049370527 54.79192918352783 M132.58418658282608 53.27053959760815 C104.19635596582665 52.3541548176948, 76.25911643616854 52.325129233235494, 0.20624935533851385 52.86263154540211 M-0.6135164778679609 53.946096835657954 C0.8204211473744363 40.86727244863287, -0.8122359633166343 31.813043322227895, 1.0128652174025774 0.016909239813685417 M-0.3489071140065789 52.90469978842884 C-0.5399921287503093 35.79430623101071, -0.8126084853615612 19.83148137629032, -0.4928975412622094 -0.6572142681106925" stroke="#000000" stroke-width="1" fill="none"></path></g><g transform="translate(1150.8333333333335 81.5) rotate(0 66.5 26.5)"><path d="M-1.2688286919146776 0.37021258659660816 C37.11662902841345 -1.6600239638704808, 76.34919177498669 -0.4694598678965123, 133.8989456873387 1.0072735268622637 M0.8069223025813699 0.946467905305326 C28.22001786278561 -0.5616961595322936, 53.953411617875105 0.003329199859872567, 132.75701309833676 0.7792698135599494 M131.3045934420079 1.0300391633063555 C134.16147261890583 14.842416410986335, 132.713388800947 34.99424258749932, 134.66352802328765 53.16121211834252 M133.27722312603146 -0.16248333547264338 C133.42536695548333 20.532668882701547, 132.23355488725937 41.42825960032642, 132.75009624753147 53.895964591763914 M132.16837316565216 53.5410791952163 C103.41327210878953 52.113291778536514, 75.55935322660952 52.055240609617904, 0.4124987106770277 52.72526309080422 M132.69324176106602 53.47304841782898 C105.75871322294697 53.67185879430733, 77.18092086799442 54.67616370997391, 0.5064326087012887 53.00845461990684 M-0.6978142280131578 52.809399576857686 C-0.7765048800688237 35.08728733500466, -1.3217375932913273 19.660312498547135, -0.9857950825244188 -1.314428536221385 M-0.22733990754932165 53.07532268669456 C0.21902126966975632 40.10141176981851, -0.310965618500486 25.270993551611898, -0.6225068708881736 0.9708353569731116" stroke="#000000" stroke-width="1" fill="none"></path></g><g transform="translate(433.16666666666686 242.83333333333343) rotate(0 71 16)"><text x="71" y="23" font-family="Virgil, Segoe UI Emoji" font-size="20px" fill="#000000" text-anchor="middle" style="white-space: pre;" direction="ltr">CATEGORIAS</text></g><g transform="translate(406.33333333333337 225) rotate(0 446 275.16666666666663)"><path d="M0.3262379638850689 0.6327546961605549 C265.58512639291587 -0.956992397263646, 531.5533890590073 0.08092223648726954, 892.1642987959087 -0.33282269164919853 M-0.017746513709425926 0.158036732301116 C258.00853617861867 2.9791382456719875, 516.7548204731196 3.243413999170065, 892.374855035916 0.22743869982659817 M892.3348037473858 -0.2883099429309368 C892.5652009285154 205.3191759862937, 893.5237535036268 410.68839363548904, 891.4597046367824 549.7358554569382 M891.7431227628142 0.27888380251824857 C892.0979107658254 216.69297165575747, 892.7190226237166 432.3627353970582, 892.3730476919561 550.518471749251 M891.9610994808376 550.9663728443284 C621.3763624485582 547.9075866363991, 349.1429430127144 548.031846179818, -0.5768910177052021 549.6270176855226 M891.7789466444403 550.2668071107317 C642.4465637266635 551.180923948725, 392.9261013563722 550.8307503919203, -0.16936901174485686 550.721767397349 M-0.33659846857190134 550.3886568990846 C0.741271892104298 426.80706671044845, 0.9322051434852183 301.824171132408, -0.3067430503666401 -0.3937842480838299 M-0.3626552399247885 550.2022469238688 C0.581787836562842 409.8079749189006, -0.10197472571209087 269.93175673168145, 0.33624017871916295 0.24966695271432401" stroke="#000000" stroke-width="1" fill="none"></path></g><g transform="translate(1161.3333333333335 93.92696629213481) rotate(0 60 10.786516853932582)"><text x="0" y="15.573033707865168" font-family="Virgil, Segoe UI Emoji" font-size="13.48314606741573px" fill="#000000" text-anchor="start" style="white-space: pre;" direction="ltr">Sesión / registrar</text></g><g transform="translate(1130.5 226.83333333333337) rotate(0 70.66666666666663 29.833333333333343)"><path d="M-0.8525034803897142 0.8044981081038713 C51.52705136078096 -1.6100468320151164, 98.21135282975925 1.0072331147889302, 143.06724818361292 1.8037378508597612 M0.9828834990039468 0.7693804195150733 C44.78614229628192 -1.446368592195212, 88.8986519251639 -0.74463401954621, 141.61371783011893 0.4400443425402045 M139.65780194414148 0.42431232519447803 C143.38799767937812 14.82521546479936, 140.87263404574546 29.91066030667475, 141.79536582839975 58.43723602282506 M141.98312524550894 0.10539263393729925 C140.24676801199394 11.887429419625555, 141.38843105668502 25.495209880545744, 141.49743933075408 59.2272681683923 M141.49195291412363 60.392451000089466 C100.16495618509742 59.28930825392407, 61.89209573231632 60.52735770146054, 1.451516030356288 57.79696799504262 M140.57542676323393 58.75862140363705 C100.26745925067607 59.321855354445695, 59.64502430800344 59.23716147555661, -0.32057212200015783 59.329765597047924 M-1.8664690274745226 59.34024144398671 C-0.2870222970005123 44.414793693802025, 1.875611658478156 30.309263622450338, 1.699618874117732 -1.6973274629563093 M-0.6807331880554557 59.99494604176533 C0.18093685798657433 40.46909300154076, 0.3566174655438711 21.93469408576688, -0.7928820392116904 0.7910852124914527" stroke="#000000" stroke-width="1" fill="none"></path></g><g transform="translate(514.3333333333335 152.00000000000006) rotate(0 331.99999999999994 28)"><path d="M-0.021434641629457477 0.5284139044582844 C141.6938280120492 -1.8767840393185613, 284.28296685591346 -1.8717902429699895, 664.0860185854137 0.20313650444149972 M-0.19745826087892057 -0.307710886374116 C133.07089317254724 -1.751624645516276, 266.09379210658375 -1.702590133473277, 663.8725442592055 0.3839361067861319 M664.2772646527737 -0.15794595889747143 C663.2880380654335 20.241731251403696, 664.3324564599991 38.67940475381912, 665.9984714966267 56.217613669112346 M663.7540227631107 0.4327981164678931 C663.7703308066353 17.268906801752753, 664.6481703421101 35.46350452359767, 664.9778428832069 55.45381528045984 M664.0000876419247 55.43056334331634 C524.1275809735059 57.865562323927904, 382.31151885464783 58.41285806119444, 0.4151809446513653 55.59937926605346 M664.1634972874075 56.177560448274036 C527.9866103973241 54.29223488380017, 392.26087745316323 54.229310319915434, 0.09683064855635166 55.71223646365108 M-1.0320010799914598 56.27586773224177 C0.34337828978896134 40.48039977811278, -2.0109879530966284 27.338772842660557, -0.7376168984919786 -1.5053071063011885 M-0.5452008387073874 56.61031475570055 C1.022878289036453 35.446415440551945, -0.3540219368413089 14.597731236182156, -0.501615627668798 0.5120367994531989" stroke="#000000" stroke-width="1" fill="none"></path></g><g transform="translate(717.9999999999999 127.22222222222223) rotate(0 125.83333333333337 44.74074074074073)"><text x="125.83333333333334" y="65.4814814814815" font-family="Virgil, Segoe UI Emoji" font-size="55.92592592592592px" fill="#000000" text-anchor="middle" style="white-space: pre;" direction="ltr">Buscador</text></g><g transform="translate(463.99999999999966 332.66666666666674) rotate(0 63.333333333333314 43.33333333333334)"><path d="M0.8047476727515459 1.9749113898724318 C36.85180179278055 0.3208059502765537, 77.00856851351756 -1.2647690938785672, 126.57407624709106 -1.4321433324366808 M0.10935926344245672 0.8810056308284402 C43.414405396518596 -0.7653363866110641, 88.30233631810792 -0.3598231298228103, 126.71622205680853 0.08823753986507654 M125.65493209349609 -1.4395815152674913 C128.574850415873 19.873590638240184, 125.89946678845828 40.48766420471173, 125.08868111359573 87.72603438111645 M126.94622946685797 0.7759280363097787 C128.1717092297971 29.58337148434173, 128.11303730830548 58.63314071514956, 126.67942390746123 86.47143706275773 M125.43825949418044 86.22404358598095 C85.89860254898664 86.83573124104491, 48.408721681063355 85.37065866881362, -0.9574064891785383 87.69802752944332 M126.91386399573332 87.12893804504228 C83.77372732479122 85.2100466411561, 40.79234214158106 85.47031720690431, 0.0354445269331336 87.6094262559588 M0.617437394335866 86.98712865325314 C0.664319956364731 60.303140110025815, -1.9176379203175506 37.06397387819986, 0.8744324166327715 1.7271832805126905 M0.5655770590528846 87.63688420845818 C-0.886596747363607 56.52343486528845, 0.3757247546066841 26.30007741817584, -0.478482604958117 -0.8338239332661033" stroke="#000000" stroke-width="1" fill="none"></path></g><g transform="translate(677.333333333333 331.00000000000006) rotate(0 63.33333333333337 47.50000000000003)"><path d="M-1.8587277811020613 1.3512784224003553 C25.738589207331355 0.16653380127002815, 51.39831655037903 1.3116888138776026, 127.4868737577151 0.21649199537932873 M0.3017055680975318 -0.37052236404269934 C27.65398868018142 -0.6957955442368988, 54.31349129757537 0.3572158433496948, 126.61480138606089 0.41103987488895655 M127.68722118126857 -0.8130256552249193 C125.39854606689582 23.403416280169054, 127.83438184560904 45.537397812120645, 127.530800294752 95.59436130337423 M126.03762648409861 -0.39865274634212255 C127.83724619216915 20.09132594102995, 126.72548226780887 41.10369022563103, 127.15158397859591 94.44356413278734 M126.17321009623515 95.35788869671529 C84.71139798934266 96.29864781989411, 43.740340963626934 94.44870471848802, 1.6713219601660967 95.38233917765325 M126.71482808298128 95.79972691927111 C88.95330498336509 96.36902571134274, 52.04947746327771 95.66955563835805, -0.07411861512809992 95.2203291514889 M-0.8032878916710615 95.49018114618963 C2.0769026952330027 72.08311601681639, 0.7080929356161508 46.43673013243827, 0.5443233568221331 -0.9672428388148546 M-0.6963832387700677 95.8846813300625 C1.2150283559691166 74.77894228650261, 0.9602075621020054 54.27499557845297, -0.9393307277932763 -0.4335613092407584" stroke="#000000" stroke-width="1" fill="none"></path></g><g transform="translate(895.6666666666664 332.6666666666668) rotate(0 60.83333333333337 48.333333333333314)"><path d="M-1.6676478665322065 0.9698346238583326 C43.09205098496753 1.1506613863166426, 86.83780521061277 0.6282996905501935, 121.17321009623515 0.3578886967152357 M-0.29026049468666315 0.8356609800830483 C34.53328436411299 -0.21992946113459766, 69.04939418720707 0.6950232640374452, 121.71482808298128 0.7997269192710519 M120.8216013430308 -0.14823723025619984 C122.37503113377225 24.325437654120222, 120.79164656031263 50.07718680302301, 120.86337877499568 97.1568478128562 M121.21551115221041 0.27216167841106653 C121.62461637472741 35.52531774838764, 121.30555893993012 72.71873661285885, 120.97028342789667 97.55134799672908 M120.41428161847102 94.78800521108008 C78.79432880707711 96.0312395036065, 36.2801823463912 97.41233926413888, 1.6904868204146624 98.15597490283346 M121.74444214409846 96.96673777295894 C95.6453414461576 97.80556316110302, 68.03732866172993 97.13105932804753, 0.9035306861624122 96.99641841246432 M-0.9933057706803083 96.80381015750265 C0.9867412740675109 72.91586024283117, 0.7567922169653075 49.39521799112357, 1.9017469603568316 -0.7724766153842211 M0.03929981496185064 95.70803469015902 C0.32352131800726036 68.4583941021313, 0.7794367988593874 40.01162617187945, 0.25375646259635687 -0.9217940112575889" stroke="#000000" stroke-width="1" fill="none"></path></g><g transform="translate(1088.9999999999995 321.00000000000017) rotate(0 77.49999999999989 52.5)"><path d="M0.13714349083602428 0.053446145728230476 C31.43399580335242 0.5933090609032655, 63.098155778832684 2.67155893263407, 154.22752338461567 -0.2187012117356062 M-0.9586319765076041 -0.12413799855858088 C39.05668598553163 0.2708627691026777, 77.87487660534674 0.19284174940548837, 154.0782059887423 0.08128258492797613 M155.72455602698017 -0.9560216348618269 C155.8014196605886 26.453298766631637, 157.38895939304481 53.79612327273936, 156.23137688450504 104.7935919482261 M154.83775775227684 0.4044601609930396 C153.6591577586251 34.43893897952512, 153.85894248452956 68.25134042836726, 155.1992884436621 104.8524640193209 M153.86325144581485 105.01054093427956 C104.8159506977535 105.04594601052813, 53.5298785110935 104.96237260955385, -1.6307840961962938 105.42089250870049 M155.9069221774115 105.04042583610862 C100.90280681895085 105.6712480685208, 48.72433023154733 105.90024342150427, 0.5444700578227639 105.11416116263717 M1.3747019153088331 103.23615387268364 C1.7687670013401657 65.61986048473045, 1.3188502213452011 29.115415927954004, -1.4613155145198107 0.8387986142188311 M-0.0012302538380026817 105.61441698577255 C1.5110365978907794 65.76815470447764, 0.19729249994270504 23.875291127711535, 0.4036983409896493 0.9226179113611579" stroke="#000000" stroke-width="1" fill="none"></path></g><g transform="translate(475.6666666666664 349.50000000000006) rotate(0 56 16)"><text x="0" y="23" font-family="Virgil, Segoe UI Emoji" font-size="20px" fill="#000000" text-anchor="start" style="white-space: pre;" direction="ltr">Sugerencias</text></g><g transform="translate(684.6666666666664 356.6666666666667) rotate(0 56 16)"><text x="0" y="23" font-family="Virgil, Segoe UI Emoji" font-size="20px" fill="#000000" text-anchor="start" style="white-space: pre;" direction="ltr">Sugerencias</text></g><g transform="translate(912.9999999999999 360.0000000000001) rotate(0 56 16)"><text x="0" y="23" font-family="Virgil, Segoe UI Emoji" font-size="20px" fill="#000000" text-anchor="start" style="white-space: pre;" direction="ltr">Sugerencias</text></g><g transform="translate(1108 355.00000000000006) rotate(0 56 16)"><text x="0" y="23" font-family="Virgil, Segoe UI Emoji" font-size="20px" fill="#000000" text-anchor="start" style="white-space: pre;" direction="ltr">Sugerencias</text></g><g transform="translate(477.33333333333337 696.3333333333334) rotate(0 390 27.5)"><path d="M0.12539803907275202 0.28874408081173897 C157.27592040933672 -0.3333160123974086, 314.5726090088487 0.018675617203116335, 779.7397703640163 0.05524143055081368 M0.3227966252714396 0.11589847765862943 C171.6470915965736 1.229339416176081, 342.98412498645484 1.4299909783899787, 780.012331539765 0.055755996331572535 M779.5112382154912 -1.020100025460124 C778.6480398675892 21.129894032608718, 779.5475283762905 39.55805772263557, 780.0769522767514 53.56335106678307 M779.6880933204666 -0.04732775781303644 C778.9708152107429 14.43183642020449, 779.9147262565326 31.1401256211102, 779.4236045340076 55.814461081288755 M779.5922160379589 55.66036831215024 C479.47211442403494 53.76063737161458, 180.0635598987341 53.90205008275807, -0.2700977332890034 55.512316406518224 M779.7417561713606 54.91214774809778 C504.6211919263005 53.791529847681524, 228.70606629513205 53.481272138655186, -0.01829311214387417 55.173183703050015 M-1.931736471131444 56.14880201406777 C1.5055992753710599 40.70905562164262, 1.1717084200587125 30.393792337737978, 1.0783707480877638 -1.9656190555542707 M-0.3475289782509208 55.42869084980339 C-1.1107545081060382 34.67312589706853, -0.018934297887608476 13.019427666440606, -0.2718058964237571 -0.3424262711778283" stroke="#000000" stroke-width="1" fill="none"></path></g><g transform="translate(535.6666666666667 700.1379928315413) rotate(0 58.16666666666663 20.01433691756273)"><text x="0" y="29.02867383512543" font-family="Virgil, Segoe UI Emoji" font-size="25.017921146953398px" fill="#000000" text-anchor="start" style="white-space: pre;" direction="ltr">Contacto</text></g><g transform="translate(767.3333333333334 696.0057471264366) rotate(0 92.5 20.413793103448313)"><text x="0" y="29.827586206896576" font-family="Virgil, Segoe UI Emoji" font-size="25.51724137931036px" fill="#000000" text-anchor="start" style="white-space: pre;" direction="ltr">Redes Sociales</text></g><g transform="translate(1080.6666666666667 692.764367816092) rotate(0 49.00000000000006 27.034482758620697)"><text x="0" y="39.06896551724138" font-family="Virgil, Segoe UI Emoji" font-size="33.79310344827585px" fill="#000000" text-anchor="start" style="white-space: pre;" direction="ltr">Ayuda</text></g><g transform="translate(489 551.3333333333334) rotate(0 376.6666666666667 41.666666666666686)"><path d="M-0.10825259760022164 0.1388612397015095 C291.13664293276776 1.5017572553207479, 580.6882027392587 1.1468259723236165, 752.8020919156572 -0.35447264835238457 M-0.38671281896531584 0.18551572524011137 C192.94576154127722 -1.0161167549590275, 386.29392842166135 -0.7865520762900517, 753.1114888334027 0.14414384327828886 M753.8279612840465 0.18580886907875538 C754.5297102454741 32.539952769565105, 752.9120211723883 65.72609930982196, 752.8772988499454 82.0927857079854 M753.2605562567092 0.9777342667803168 C754.0104028723825 30.48526342834037, 752.9544493399252 61.90886829638236, 754.322645610509 82.42626487122232 M752.7318004680178 83.54039168034994 C459.37747256619247 84.05988082803789, 165.35456479986513 85.28841359533372, -0.5348991878330708 84.01463744317496 M753.6255364203206 83.46854528946184 C599.3933872471254 83.2449926201503, 445.9649432893843 82.83615779320404, 0.07823916114866734 83.21588114065432 M0.37381970696151257 83.98440807250643 C0.8282060363950832 56.02381403154385, 1.3318739274206264 30.21809860691429, -0.8182405848056078 -1.291269151493907 M-0.8255739053711295 84.05534716354066 C0.07334044342860557 53.57701823798321, 0.22034978633746483 24.08672546812644, 0.11688844952732325 0.32234713342040777" stroke="#000000" stroke-width="1" fill="none"></path></g><g transform="translate(612.0208333333345 574.8333333333333) rotate(0 250.76041666666663 30.16666666666663)"><text x="0" y="44.333333333333314" font-family="Virgil, Segoe UI Emoji" font-size="37.70833333333333px" fill="#000000" text-anchor="start" style="white-space: pre;" direction="ltr">Comentarios otros clientes</text></g><g><g transform="translate(415.66666666666646 294.6666666666667) rotate(0 440.53308764041725 -0.1800847799827352)"><path d="M0.20506680719554415 1.179850136116147 C147.0550692536351 0.8923866631670194, 735.2063343012913 -1.214720148303411, 882.2125871292006 -1.5400196960816401 M-1.1464118483662604 0.7536675122380259 C145.49598726030857 0.6654867975248296, 734.39687427385 0.6302952287263656, 881.5511499084038 0.06389521469676307" stroke="#000000" stroke-width="1" fill="none"></path></g></g><g><g transform="translate(409 656.3333333333334) rotate(0 443.584673552836 -2.5432258716225533)"><path d="M-0.9589571882039308 -1.022431791946292 C147.0214274569932 -1.6307790370037158, 739.7692815718965 -3.787020759905378, 888.1283042938759 -4.356763650104403 M0.7384515586495399 1.055187571942806 C148.52135018709632 0.15932577143112792, 739.0487021948563 -4.884129870633284, 887.0726185845335 -6.141639315187931" stroke="#000000" stroke-width="1" fill="none"></path></g></g><g transform="translate(792.3333333333337 26.166666666666686) rotate(0 98.33333333333343 39.333333333333385)"><text x="0" y="57.66666666666677" font-family="Virgil, Segoe UI Emoji" font-size="49.16666666666671px" fill="#000000" text-anchor="start" style="white-space: pre;" direction="ltr">IMAGEN</text></g><g transform="translate(628.3333333333335 239.5) rotate(0 55.5 16)"><text x="0" y="23" font-family="Virgil, Segoe UI Emoji" font-size="20px" fill="#000000" text-anchor="start" style="white-space: pre;" direction="ltr">Mis Pedidos</text></g><g transform="translate(811.6666666666669 241.16666666666663) rotate(0 40 16)"><text x="0" y="23" font-family="Virgil, Segoe UI Emoji" font-size="20px" fill="#000000" text-anchor="start" style="white-space: pre;" direction="ltr">Ofertas</text></g><g transform="translate(981.6666666666669 239.5) rotate(0 45 16)"><text x="0" y="23" font-family="Virgil, Segoe UI Emoji" font-size="20px" fill="#000000" text-anchor="start" style="white-space: pre;" direction="ltr">Empresas</text></g><g transform="translate(1158.3333333333335 227.83333333333331) rotate(0 44.5 26.128440366972484)"><text x="0" y="19.128440366972495" font-family="Virgil, Segoe UI Emoji" font-size="16.33027522935781px" fill="#000000" text-anchor="start" style="white-space: pre;" direction="ltr">Preguntas </text><text x="0" y="45.25688073394499" font-family="Virgil, Segoe UI Emoji" font-size="16.33027522935781px" fill="#000000" text-anchor="start" style="white-space: pre;" direction="ltr">Frecuentes</text></g><g transform="translate(10 290.26923076923083) rotate(0 141.83333333333334 87.28205128205121)"><text x="0" y="127.56410256410248" font-family="Virgil, Segoe UI Emoji" font-size="109.10256410256413px" fill="#000000" text-anchor="start" style="white-space: pre;" direction="ltr">HOME</text></g></svg>